<mxfile host="app.diagrams.net" modified="2021-10-25T20:10:31.925Z" agent="5.0 (X11; Linux x86_64) AppleWebKit/537.36 (KHTML, like Gecko) Chrome/89.0.4389.90 Safari/537.36" etag="hyDDMrtvPU_ard_oB4Hl" version="15.4.1" type="github">
  <diagram id="CHvi7NniBGWSvwjMx_qq" name="Page-1">
    <mxGraphModel dx="1119" dy="644" grid="1" gridSize="10" guides="1" tooltips="1" connect="1" arrows="1" fold="1" page="1" pageScale="1" pageWidth="827" pageHeight="1169" math="0" shadow="0">
      <root>
        <mxCell id="0" />
        <mxCell id="1" parent="0" />
        <mxCell id="WdoEh3YIsQ9yu6LuEiXz-21" value="" style="rounded=0;whiteSpace=wrap;html=1;strokeWidth=2;" vertex="1" parent="1">
          <mxGeometry x="50" y="130" width="160" height="160" as="geometry" />
        </mxCell>
        <mxCell id="WdoEh3YIsQ9yu6LuEiXz-16" value="" style="shape=image;verticalLabelPosition=bottom;labelBackgroundColor=#ffffff;verticalAlign=top;aspect=fixed;imageAspect=0;image=data:image/png,iVBORw0KGgoAAAANSUhEUgAAAgAAAAIACAYAAAD0eNT6AAAABHNCSVQICAgIfAhkiAAAAAlwSFlzAAAOxAAADsQBlSsOGwAAABl0RVh0U29mdHdhcmUAd3d3Lmlua3NjYXBlLm9yZ5vuPBoAACAASURBVHic7d15mB1lnfbxb3cSErIRlE0QlUXCKiKoLwIqQUVQAYGRkVVlfF3YVQQVGBxUBDdWd0FAEB3WAUVEQJQBQXY0yCKELaxCCAnZ0/PH0w1Nk+6c06eqfrV8P9dVF6TTfZ77nCt96j71VD0FkiRJkiRJkiRJkiRJkiRJkiRJkiRJkiRJkiRJkiRJkiRJkiRJkiRJkiRJkiRJkiRJkiRJkiRJkiRJkiRJkiRJkiRJkiRJkiSVV1d0gCF0Aa8FVgLGA+N6t+UjQ6nWeoAZwFPAVODJ2DiSlJ+yFIAxwObAVsD6wDrAZGBsZCg13jTgAuAM4I7YKJKUrcgCsB6wCzCFtPMfE5hFGkoPcCnwBeCe4CySVEkrAPsDN5DeVN3cqrTNAT6HJKllk4HTgXnEv4m7uXW6nQ6MRJI0qI2BXwGLiH/TdnPLcjud8pxDI0ltG5HT464AnAT8CNgQ3yhVP28GZgPXRQeRpOHIesfcDewLHAu8OuPHlspmPvB24LboIJLUriwLwGuBc0iX8klNcSPpKpbF0UEkqR1ZTQG8B/gd6Rp+qUlWAx4HbooOIknt6PQIwAjg68AXM3gsqaqeBdbFlQMlVUgnRwCWAc4GPoU7fzXbssDKwEXRQSSpVcPdcY8Hzgfel2EWqcp6SFNhV0UHkaRWDKcAvBq4Atgk4yxS1U0l/V7Mjw4iSUvT7hTAWOAy4G05ZJGqbkXgBeDa6CCStDTtHAEYBVwMbJdTFqkOXiAtfvVAdBBJGkp3i9/XRVr61J2/NLSxwAnRISRpaVqdAjgEODTPIFKNTAZuBe6ODiJJg2llCuCtpDnNZXLOItXJQ6SFsWZHB5GkJVnaEYBJwB9IN/eR1LrlSFNsV0YHkaQlWdoRgDOBvYoIItXQAlwcSOrEPNJRtBnALOBR4C7S9NqzgblqYagC8C7g6qV8jyRJEZ4CbgeuIS3AdSOwMDRRxQy2cx9FusWpN/eRJFXBLOCPwC+BC4E5oWkqYLACcChwfJFBJEnKyEzgPODnwJ9jo5TXkgrAeGAaaclfSZKq7FbgWFIh6AnOUipLWgjos7jzlyTVwybAr4FbgJ2Cs5TKwCMAY4D7gdcEZJEkKW9XA/uRriZotIFHAPbFnb8kqb62Jh0N+CrpQ29jDTwCcBuwcUQQSZIKNhX4CPD36CAR+h8B2BB3/pKk5lgfuB7YPTpIhJH9/v9jUSGGMJe0wMPlpPmaZ3D1Jw3fdsAp0SEklcoE4GxgC+BAYFFsnOL0TQGMAB4BVgnM0t/9pPmZC0iLO0hZ6CKdAPSu6CCSSuki0tGARiwi1FcANgP+Ghmk1yzgK8APgfnBWVRP65POdRkVHURSKf0Z2IF0/4Fa6zsHYOvQFMk00iGYk3Dnr/xMBb4THUJSaW1FOlI4KTpI3voKwJTQFOkT2duAO4JzqBmOAR6MDiGptN4MXAwsGx0kT92kEwG3CMzwBLAj6c5OUhFeAA6KDiGp1N4J/IqXnyxfK93AeqSzICMsAnYGHgoaX811MfA/0SEkldqHgBOjQ+SlG1g3cPzTgOsCx1ezHQDMjg4hqdQ+C+wZHSIPkQVgDvBfQWNLkI48fS06hKTS+wGxH5Zz0Q2sEzT2WaS1B6RI3yFdGSBJgxkPnEvN7h3QDawZNPZFQeNK/S0gHeLzPuGShrIxcHh0iCx1A8sFjPs8aYlfqQyuIR2RkqShHAasHR0iK93EXAFwCzAvYFxpMIfifSYkDW0MNbqfSDdpbqNo9weMKQ3lSeDL0SEkld62wE7RIbIQdQTguYAxpaX5MXBjdAhJpXcUL91Lp7K6ibkpimv9q4wWA58EFkYHkVRqmwDbR4foVPfSv0VqlDtI1/xK0lCOjA7QKQuA9EpHAo9Fh5BUam8n3TmwsiwA0is9B3w+OoSk0ts7OkAnuohZAOV40vWUUpldAbwnOkSvR/DcGTXPssBKwIjoIIN4DngNaWn7SuoJ2I4r5JlJnVkHmEvM78jAzXsWqKmWATYDjgZuJf53ceC2W27PvAAWAGlw/0X8G0wPqYhMzvm5SlXwdtLqndG/k31bpZe1twBIg1sWuI/4N5ke4Mqcn6tUJTuTVu+M/r18DhiZ83PNjQVAGtq2xL/J9G275/xcpSpZm3Q3z+jfy7fn/UTz4FUA0tJdDpwXHaLXd4i5gZdURvcBWwJ3B+eYEjz+sFgApNYcQrqLZbRV8IRAqb9ngB2BGYEZtg4cuyNOAUit+Rzxhxp7SEsVb5rzc5WqZmfificfL+D55cICILVmJOW5DOkmyntttBTlSuJ+JycV8Pwy5RSA1LqFwH6kX/ZomwKfig4hlUzkLb0rd5muBUBqz3XAadEheh1LWoVMUnIDcHvQ2BYAqQEOA56ODgFMJC2rLeklFweNu3rQuMNmAZDa9y/Kcy+LPajwGchSDi4JGndC0LjDZgGQhud00nKk0bqAHwKjo4NIJXEnsChg3PEBY3bEAiANTw9wAOnEwGjr4O2LpT7ziJmimxgwZkcsANLw3QmcGB2i11eANaJDSCURsWiXRwCkhjkKeDA6BDAW+H50CKkkIqYAKrc/rVxgqWReoDyH398P7BQdQlI1WACkzp0PXBodotdJVPBQpKTiWQCkbOwPzI4OQboW+cjoEJLKzwIgZeNBynOPi88BG0eHkFRuFgApO8cB/4gOQbpp0SmkNQIkaYksAFJ25gOfphw3C9oS2Cc6hKTysgBI2boGODc6RK9vAytEh5BUThYAKXuHADOiQwCvBr4eHUJSOVkApOw9QVogqAz+A9g8OoSk8rEASPk4FbgxOgTpd/xHpBMDJelFFgApH4uB/YhZknSgjUhZJOlFFgApPzcBP44O0esYYLXoEJLKwwIg5etw4LHoEMAE4LvRISSVhwVAytdM4LDoEL0+AmwfHUJSOVgApPydBVwVHaLXicCY6BCS4lkApGJ8BpgXHQJYm/IckZAUyAIgFeMeyjMH/yVgcnQISbEsAFJxjgEeiA4BjAZOjg4hKZYFQCrOHMpzPf57SScFSmooC4BUrMuAi6ND9DoRWC46hKQYFgCpeAcAs6JDAKsAR0eHkBTDAiAV72Hga9Eheh0AbBIdQlLxLABSjO8Ad0SHAEaQbhbke4HUMP7SSzEWkk4I7IkOAryVdNtgSQ1iAZDiXAucGR2i17HAStEhJBXHAiDF+jzwdHQI4FXAcdEhJBXHAiDF+hdwRHSIXvsAW0eHkFQMC4AU7yfA9dEhgC7SCoGjooNIyp8FQIq3GPgU6cTAaBsAB0eHkJQ/C4BUDncCp0aH6HU08IbgDJJyZgGQyuNI4NHoEMBY4HvRISTlywIglcfzpKsCymAn4EPRISTlxwIglcuvgN9Gh+h1CjAuOoSkfIyMDiDpFQ4GpgBjgnO8DniMcpycKLVjYsCY2wL/BGYCs3u3J4C7gXv6/XduQLYlsgBI5XMvaVGe/4wOAkyIDiBVxBhgzaV8zyLgNuAPwP8CfyRN/YXoImYt8uOBwwLGlapiDOnKgLWjg0jKzVzSlN+ZwGXA/CIH9xwAqZzmAvtHh5CUqzHAzsBFpCuATgYmFzW4BUAqr8uB/44OIakQK5BK/1TgEmCzvAe0AEjldgiBc4SSCtcNfBC4EbgYWCfPgSSV16OU42RAScXqAnYA/gacCIzPegALgFR+J5POHJbUPKOAA4E7gPdn+cAWAKn8FgL/n3TTIEnNtAbpioETgWWyeEALgFQNfwV+Fh1CUqgu0tGAa0mFoCMWAKk6Dgeeig4hKdxbgZuALTp5EAuAVB3P4AJakpJXAVcCuwz3ASwAUrX8nLR8qCSNJt1A7JPD+WELgFQtPcABwILoIJJKYQTwI2Dfdn/QAiBVz9+AE6JDSCqNLlIJaGs6wAIgVdPRwLTgDJLKYwTwC2CrVn/AAiBV0wvA56JDSCqVMaTlg1u6RNACIFXXhaSbhkhSn+WBX5NOEBySBUCqtv2B2dEhJJXKZsBxS/smC4BUbQ8B34gOIal0DgR2HOobLABS9X0buCs6hKRS6QJ+ACw32DdYAKTqmw98mrRGgCT1eQ1w5GB/aQGQ6uFPwFnRISSVzkHARkv6CwuAVB8Hkc4JkKQ+I4HvLekvLABSfcwAdgVmRQeRVCrbAJsP/KIFQKqXv5LO/H0+OoikUjli4BcsAFL9XAVsCdwfHURSaWwHbNL/CxYAqZ7uAN5EumnQ/OAskuJ1AQf3/4IFQKqv2cAhwNqktQIeiY0jKdjOwLi+P3QRc+3w8cBhAeNKTdYFbAxsSioFy/d+TVLnRgITgBWB9YCVY+MMam/6XTLcE7AtdY1iSZIq7M3AfwJTidnPDrb9vn9IC4AkSfnoBvYBHiR+598DLARe3RdMkiTlYzFwBjAZOC04C8AI4N1gAZAkqQhzgX1JJ+YuCs4yBSwAkiQV6QQGXI4XYGuwAEiSVLRTgB8Hjr8esJIFQJKk4h0A3Bs4/voWAEmSijcf+HLg+JMtAJIkxTgfuClo7HUtAJIkxegBzg4aex0LgCRJcS4KGndlC4AkSXGmAf8IGHeCBUCSpFhTA8a0AEiSFOyJgDEtAJIkBZsVMOY4C4AkSbF6AsbssgBIktRAFgBJkhrIAiBJUgNZACRJaiALgCRJDWQBkCSpgSwAkiQ1kAVAkqQGsgBIktRAFgBJkhrIAiBJUgNZACRJaiALgCRJDWQBkCSpgSwAkiQ1kAVAkqQGsgBIktRAFgBJkhrIAiBJUgNZACRJaiALgCRJDWQBkCSpgSwAkiQ1kAVAkqQGsgBIktRAFgBJkhrIAiBJUgNZACRJaiALgCRJDWQBkCSpgSwAkiQ1kAVAkqQGsgBIktRAFgBJkhrIAiBJUgNZACRJaiALgCRJDWQBkCSpgSwAkiQ1kAVAkqQGsgBIktRAFgBJkhrIAiBJUgNZACRJaiALgCRJDWQBkCSpgSwAkiQ1kAVAkqQGsgBIktRAFgBJkhrIAiBJUgNZACRJaqCR0QEkKVg38EZgQ2AFYBLwDDAduBN4KC6alB8LgKQm6gbeDXwU+CCwyhDfez9wPvDD3v+XaqMnYDuukGcmSS+3AXAs6VN9u+9bC4EzgJULT626O46YfbEFQFKtrQIcDNxMNu9fzwI7FPoMVHchBcCTACXV0Vhgd+A3wMPA94C3ZPTYk4CLgM9n9HhSCM8BkFQXffP6ewG7ABNyHKsL+DawADgpx3Gk3FgAJFXdesBuwN7AGgWP/V3gLuCKgseVOmYBkFRFrwJ2Je30twjMMQL4GamEzA7MIbXNcwAkVUX/ef0ngB8Ru/PvszpwaHQIqV0WAEll1g1sSdrZPwacDWxP+Y5eHgCMiw4htaNsv0SSBOl6/T2BPUifsMvuVcCOwDnRQaRWWQAklcXKpJX59iK7S/aKZAFQpVgAJEUaA7yXtNPfCRgVG6cjm0cHkNphAZBUtP7X6+8MTAxNk53VSc9lZnQQqRUWAElF6btefy9gzeAseVkBC4AqwgIgKU9Vn9dv1/joAFKrLACSslanef12dUUHkFplAZCUhW7gHaSd/r9Tn3l9qbYsAJI60YR5famWLACS2lWWdfgldcACIKkVTZ7Xl2rJAiBpMM7rSzVmAZA0kPP6UgNYACSB8/pS41gApOZyXl9qMAuA1CzO60sCLABSUzivL+llLABSfTmvL2lQFgCpXpzXl9QSC4BUfc7rS2qbBUCqLuf1JQ2bBUCqFuf1JWXCAiCVn/P6kjJnAZDKyXl9SbmyAEjl4ry+pEJYAKR4zutLKpwFQIqxLGk+f0/gffi7mKXbgGmk11fSILqjA0gN0g1sCfwIeBw4B9ged/5ZmA6cBGwKbAKcFxtHKj/feKT8Oa+fjznApcBZwGXAwtg4UrVYAKR8OK+fj8XA9cCZpCMos2LjSNVlAZCyMxrYGef183Ab6ZP+L4HHgrNIteAblNS5icCBwP7AysFZ6uRR4GzSjv9vwVmk2rEASJ15P+mkvtdFB6kJ5/WlglgApOE7DDgW6IoOUnHO60sBLADS8HwPODg6RMU5ry8FsgBI7fss7vyHazrpGv0zgFuCs0iNZgGQ2vMm4IToEBXzPHAh6dP+VaRD/pKCWQCk1nWRVpvzdrxL57y+VHIWAKl17wfeFR2i5JzXlyrCAiC17lPRAUrKeX2pgiwAUmsmAh+IDlEis4ALcF5fqiwLgNSazfH3xXl9qUaa/oYmtWqz6ACBnNeXasgCILVmlegABXNeX6o5C4DUmldFByiA8/pSg1gApNbU9XfFeX2poer6piZpaFNJO/0zcV5faiQLgNQczutLepEFQKq3OcClpHn9y4CFsXEklYUFQKof5/UlLZUFQKoP5/UltcwCIFWb8/qShsUCIFWP8/qSOmYBkKrBeX1JmbIASOXmvL6kXFgApPKaBmwQHUJSPXVHB5AkScWzAEiS1EAWAEmSGsgCIElSA1kAJElqIAuAJEkNZAGQJKmBLACSJDWQBUCSpAayAEiS1EAWAEmSGsgCIElSA1kAJElqIAuAJEkNZAGQJKmBLACSJDWQBUCSpAayAEiS1EAWAEmSGsgCIElSA1kAJElqIAuAJEkNZAGQJKmBLACSJDWQBUCSpAayAEiS1EAWAEmSGsgCIElSA1kAJElqIAuAJEkNZAGQJKmBLACSJDWQBUCSpAYaGR1AUiMtA6wPrANMBtYD1gAmAuN6/zsRWATMBp4H5gAPAw/0bvcBNwIPFpxdqgULgKQijAQ2BbYGpgBbAGNb+LkRpLKwfO+fJy/hex4HbgCuAv4HmNZhVqkRLACS8rQpsDfwUWDFnMZYBdixdzsRuB14LKexpNqwAEjK2jjgk8B/ABsEjL9x7yZpCBYASVmZAHwCOJz0qVxSiVkAJHVqNHBo7zYxOIukFlkAJHVia+BU0ln8kirEAiBpOFYg7fg/Eh1E0vBYACS1623Ar4A3BOeQ1AFXApTUqi7gIOBa3PlLlecRAEmtGAOcA3w4OoikbFgAJC3NeOAC4L3RQSRlxwIgaSgrA5cBm0QHkZQtC4CkwbyatL7++tFBJGXPkwAlLclY4GLc+Uu1ZQGQNNAo4DzSHfsk1ZQFQNJA3wO2iw4hKV8WAEn97QrsFx1CUv4sAJL6rAX8NDqEpGJ4FYDqahTpErZxpOvYJ5HuWjcfmA3MBf4FTAcWBmUsk5HAucBy0UEkFcMCoDpYnXRXug2BycC6wJq09u97IfAw8ABwF3AD8Bfg3lySltcBwGbRISQVxwKgKhoLfBB4D2nHv3YHjzUSWKN3m8JL899PA5eTLoX7XQePXwWrAl+NDiGpWBYAVUU38E5gH2AXYELO460A7NG7zSNNGdTVd8n/9ZRUMhYAld2ywL7A54m7A93o3q2O3gHsFh1CUvEsACqr8aQd/xdJh6iVjyOiA0iKYQFQ2XQBewPHAysFZ6m7TYD3R4eQFMMCoDKZDJxCOrlP+fsKqXBJaiAXAlIZjACOBu7EnX9RVgc+HB1CUhyPACjaSsBZwPuigzTMXvgBQGo0C4AivQc4G+f6I+wZHWAQM4BbgGm9/z+KtIrjOsBbev8sKQMWAEXZh7TuvP8Gi/dWYL3oEP3MAs4ELgL+CCwY5PsmAduTbli0Ix7BkDriL5AifAE4HXf+UXaNDtBrAfB90kqO+wFXMPjOH9IRgXOAnYFNgd/nHVCqMwuAinYc8C08+zzSlOgAwCPA5qQd/xPD+PnbgG2Bj5NWapTUJguAinQUaWEfxZlEuv4/0g3A24CbM3isn5MKzXBKhNRoFgAV5VN4w5kyeBfpsssod5MWH3osw8e8DtgOeCHDx5RqzwKgIuwCnBodQgBsGTj2s8AOpLn8rN1KWjq6J4fHlmrJAqC8rQ+cQeynTr0k8uz/LwD35Pj455JOEpTUAguA8jSG9IY8LjqIXrRu0Lh3kS71y9sReFKg1BILgPJ0KrBxdAi9aDRxt1Q+AlhYwDjTgB8XMI5UeRYA5WVn4BPRIfQyaxEzFTMT+E2B451b4FhSZVkAlIexwHejQ+gVVgwa97cUe1j+L8DjBY4nVZIFQHn4KvD66BB6hfFB415R8HiLgSsLHlOqHAuAsrYhcFB0CC3RhKBx/9GQMaVKsQAoa8fgHdvKKqoAPBkw5lMBY0qVYgFQljYg3aVN5bRM0LjzA8acGzAmwKKgcaW2WQCUpS/jTX7KbHbQuBHnHkQd7Xg+aFypbRYAZWUtYLfoEBpS1M4p4oTQ1wWMCRYAVYgFQFnZF5f7LbtZQeNG3H3wLQFjggVAFWIBUBa6gT2iQ2ipZgaNu0PB400C3lnwmJDOO1gQMK40LCOjA6gW3k3cIdeh3A9cCtwJPEx6c+4GViOdsLgd6bLFpngoaNy3AqsC0wsabztirkSJen2lYbEAKAt7RwfoZz7wQ+BnwB1L+d4vks5d2Bv4HHEL5RRlOukQddEnyHUDnwGOLGi8zxY0zkCuPaDK6QnYjivkmakIXaTrvCP+HQ3cfg2sOcznsTLwfdIqctHPo297YJjPZSg3BT2XWcBrcng+A+0Y9Px6gOMLeH6qp+MI+DfrOQDq1IbErTHfZyFwAPAR0mH/4XiC9Mnx34i7XK4IdweNOw44NucxxhL74SLqtZWGxQKgTk0JHn8usD1wSkaPdz6wJfVdSe62wLH3AT6d02N3AacDk3N6/FbcHji21DYLgDq1deDYPaTLD7O+2cxtwK7ErGCXtz8Gj38SsE0Oj3sU6QhQlGeBWwPHl9pmAVCn3h449vHAOTk99p+AA3N67Ei3ADMCxx8F/Ab4WIaP933g6Iweb7iuwWWAVTEWAHViOWCVoLEfIv83/R+T7i1fJ4tI5SbSaNLh+hOBiR08zlrA70lXGES7KjqA1C4LgDoROd96JPnf8KWHdKlg3fw+OkCvA4H7SCdwjm7j51YilYeppDUoyqAsr6nUlojLZbwMsB72Iubfz4MUW16vyel5LG17IKfnsyLp/IaI5zTY9hxwLvBR0qWc/ZeVHg1sRCoMfyAt6BSdt/92U6svvDSIkMsAXQhInVg7aNyLSdfrF+VCYpaWzctTwGUUv0TvUCaSbibV/4ZSM0iLlZV9gaazogNIw+EUgDoxKWjcCwse76KCxytCFXZakyj/zn8h6ciFVDkWAHUi4s15MXB9wWNOAx4teMy8XUJ91zoo0m9Ji0hJlWMBUCciCsCj5H/y35L8M2DMPM0jnUinzng+kyrLAqBOFH1TGYi7hv3ZoHHzdDKxawJU3VXAddEhpOGyAEjlNS/nx58JnJrzGHX29egAUicsAOrE8wFjRp14uHzAmLMKGOME6nl0I2/X4OI/qjgLgDpRxA5qoNWAZQPGfWPAmDMLGONp4IgCxqmThcBB0SGkTlkA1ImIAtANvKPgMdeimHvZD1TUEZYfAjcUNFYdnIB3/lMNWADUiahDxzsVPF7UgjlFnaC3mLQcb5GLK1XVI8BXo0NIWbAAqBNRl8btyMuXis3bhwscq78iX9+/4iVtS7OYdPvpiCNfUuYsAOrE3UHjrk66D0ER3glsVdBYA/2j4PGOAv5c8JhV8g286Y9qxAKgTkQVAICvAWNzHqML+GbOYwyl6Nd3IbA76cRAvdyf8NC/asYCoE48BzwWNPZqwNE5j/FpYPOcxxjMYuDegHEfAfYklQElj5LuUuhrolqxAKhTNwaOfSiwR06PvSXpbO8odwIvBI19OfAx0i1Dm+454APA9OggUtYsAOpU9GIoPwXel/Fjvpl0x8FlMn7cdkS/rmcDhwVniDYH+BBe8qeasgCoU9E7qjHAb4ADM3q8XYFrgRUyerzhin5dAb4FHB8dIsh80mF/T4pUrfUEbF5uVB9dpNuhRvw7GridR1q0ZzhWIS2Is7gEz2MBMHGYzyMPX6Icr0tR20zgvZm8clJrjiPm33rIoBaAejmN+Dftvm0ecBKwcYvZ3wgcQ1p1Lzp733Zli9mL9AlSMYl+bfLengA2zeg1k1oVUgBGFvLUVHdnAR+PDtFrGdKqdgcAD5CmB+4gnd0+DxgFrApsAGwHrB8Tc0i/iA6wBKcBT5KyLRecJS9TSYtM3RcdRCpKRMv2CEC9dJF2ttGf3uqwvUC5d7CvB64n/nXKejsTGJfh6yS1I+QIgCcBKgs9wDnRIWriQtKlZ2X1IGl1xL43rKqbAxwM7A3MDs4iFcoCoKz8DBdKycJPogO0YAFwOOnyy3uCs3TiMmAj4MToIFIEC4Cycj9wbnSIirse+GN0iDb8AdiQ9Am6SjfImQ7sA2xP3A2tpHAWAGXpWLylbCeOiQ4wDAtIn6A3Ii3KND82zpCeBo4A1iHN+UuNZgFQlqYCF0WHqKhbgd9Fh+jANOCTwOtI5wdELWO8JE+SbuSzFvB1nOuXXhRxxq1XAdTXeqTL7aLP6q7a9p7hvNglthJpauAWYl7PBaRLQP+dtFqkVGYuBKTa+CbxO9QqbXU/d2JD0r+J28l3RcG5pHMoDgZWLuKJSRmxAKg2xpEuF4vesVZhm0lamKgpVgQ+AvwA+CvpksfhvnaPA1cD3yAdQVm2wOchZcmVAFUbs4GDSNe0a2hH0axbzT4F/Lp367MqsC7wBmB5UoEcT1oQaTGpJMwkXWnwLOnSw7uBGUWFlurIAqC8XES6pv2T0UFK7Crg5OgQJTCdZpUgqRS8CkB5OhC4LTpEST0O7AEsig4iqZksAMrTXNJ878zoICWziLTzfzw6iKTmsgAob/eSVl3zk+5LDiEd/pekMBYAFeEi4DPRIUri6zjvL6kELAAqyk9IZ7w32VnAkdEhJAksACrWMTR3DYhfAp8gXX8rSeEsACra4aQ1App006CTgT3xdsmSSsQCoAgnAXuT1muvsx7STWgOpFmFR1IFWAAU5WxgW+p7KdxMYDfg6OAckrREFgBFuhp4E3B5dJCM3QpsCvx3dBBJGowFQNGeArYnXSFQ9SmBHuAU4B3AfcFZIhIeVgAABe1JREFUJGlIFgCVwWLSFQIbAlcEZxmu24EtgQNIKyBKUqlZAFQm95DOC9gbeCI4S6tmku4/vxlwXXAWSWqZBUBl00NaMGct0o710dg4g3qetKbBGsCJeImfpIqxAKisZpN2rGsD+wH3x8Z50ePAl4HXktY0eCY2jiQNjwVAZTcX+D7piMBmpDUE/hWQ4VLSnQ1fBxyLdziUVHEjowNIbbi5dzucdOXANsAUYHIOYz1IukzxD8AluMOXVDMWAFXRHOD83g1gNWBr0lUEk4F1SUcMRrXwWIuAacDdwF3AVOAa4J+ZJpakkrEAqA4eBX4x4GsjgZWA8cAEYDlgDDAfmAHM6t2e7P2aJDWKBUB1tRCYHh1CksrKkwAlSWogC4AkSQ1kAZAkqYEsAJIkNZAFQJKkBrIASJLUQBYASZIayAIgSVIDWQAkSWogC4AkSQ1kAZAkqYEsAJIkNZAFQJKkBuoGFgSMu0zAmJIklVHEPnF+N/B8wMDLBYwpSVIZTQoYc1Y3MCtg4DUDxpQkqYzWDhhzZtQRgLcAowPGlSSpTMYAbw4Yd1Y38FzAwBOAbQLGlSSpTLYBxgeMO6MbuD9gYICdgsaVJKksovaF93cDdwcNvhewetDYkiRFWw3YPWjsf0QWgDHA0UFjS5IU7WvA2KCx7wbYCOgJ2hYCW+b9LCVJKpmtSPvAqP3vBgAjgZmBIZ7CywIlSc3xeuAJ4va7M4FRfWF+GxikB7gNWGn4r6UkSZWwMnA7sfvcS+ClewFcnd9zbcnGwM3ApsE5JEnKy5uAv/T+N9JV/f+wKbFtpG+bBRyCiwRJkupjNPB50j4uej/bQ/rQ/aIRwPQShOrb7gc+Bkxs6yWWJKk8JgIfBx4gfr/atz1M79H/rn5BvwV8Ietn36F5pOmJy4G7gKeBGaQnIUlSWXSRbuqzArA+sC2wNeW7++1xwOHw8gKwAfC3kDiSJKkIG9G7r+/u98W/k87GlyRJ9XML/T7odw/4y58Um0WSJBXkp/3/0DXgL8cA/wRWLSyOJEnK2+OkRffm9H1h4BGAucAJRSaSJEm5+xb9dv7wyiMAAOOAaaQzGSVJUrX9C3gDaR2CF41YwjcuABaRLmGQJEnV9mXgzwO/uKQjAJBuEHQTA1YLkiRJlXInabXfBQP/YuA5AH0WAvvjgjuSJFVVD2lf/oqdPwxeAACuBc7II5EkScrdacCfBvvLwaYA+kwgTQWsk2UiSZKUq/uAzYDnBvuGoY4AADwP7E5ak1+SJJXfPGA3htj5w5KvAhjoMWAmsF0GoSRJUr4OBC5Z2je1UgAAbiCtIORVAZIkldfpwJGtfOPSzgHobwRwHrDTcBJJkqRc/Ya0j17Yyje3UwAAlgWuALZo8+ckSVJ+bgC2AWa3+gNLOwlwoDnAjqRbCkqSpHg3A9vTxs4f2i8AkNYUfhdw+TB+VpIkZecqYArwTLs/OJwCAOmGAjsA5w7z5yVJUmcuAD5AulKvba1eBbAki4ALSfcN2JL2zyeQJEntWwwcA+zHIMv8tiKrnfYU4GxglYweT5IkvdJTwN7A7zp9oCw/ta9KKgHvzvAxJUlSchWwJ2mBvo4N9xyAJZlOOhKwD/Bkho8rSVKTPQMcDLyXjHb+0Nk5AIO5HfgZac2Azci2ZEiS1BSLgV8AHwKuJt3eNzN5FACAuaT5ifNJdxTcAIuAJEmtWExa1e+jwA+AF/IYpKgz998IfAnYA1imoDElSaqS+cBZwDdJt/PNVdGX7k0irR+wF2nJQi8dlCQ13c2kHf85pLP8CxG5A34jsAvpxMEtgLGBWSRJKsoLwLWks/ovAO6NCFGWT+Cjgf8HbAWsD6wDTAbGR4aSJKlDzwP39G5/B/5MunHPvMhQUJ4CMJhVSYsLjQfG9f53+dBEkiQt2bOkpfJn9/73cdIl8pIkSZIkSZIkSZIkSZIkSZIkSZIkSZIkSZIkSZIkSZIkSZIkSZIkSZIkSZIkSZIkSZIkSZIkSZIkSZIkSZIkSZIkSZIkSZIkqU3/B/XhJ9Mwop6xAAAAAElFTkSuQmCC;" vertex="1" parent="1">
          <mxGeometry x="109" y="140" width="32" height="32" as="geometry" />
        </mxCell>
        <mxCell id="WdoEh3YIsQ9yu6LuEiXz-17" value="" style="shape=image;verticalLabelPosition=bottom;labelBackgroundColor=#ffffff;verticalAlign=top;aspect=fixed;imageAspect=0;image=data:image/png,iVBORw0KGgoAAAANSUhEUgAAAgAAAAIACAYAAAD0eNT6AAAABHNCSVQICAgIfAhkiAAAAAlwSFlzAAAOxAAADsQBlSsOGwAAABl0RVh0U29mdHdhcmUAd3d3Lmlua3NjYXBlLm9yZ5vuPBoAACAASURBVHic7d15mB1lnfbxb3cSErIRlE0QlUXCKiKoLwIqQUVQAYGRkVVlfF3YVQQVGBxUBDdWd0FAEB3WAUVEQJQBQXY0yCKELaxCCAnZ0/PH0w1Nk+6c06eqfrV8P9dVF6TTfZ77nCt96j71VD0FkiRJkiRJkiRJkiRJkiRJkiRJkiRJkiRJkiRJkiRJkiRJkiRJkiRJkiRJkiRJkiRJkiRJkiRJkiRJkiRJkiRJkiRJkiRJkiSVV1d0gCF0Aa8FVgLGA+N6t+UjQ6nWeoAZwFPAVODJ2DiSlJ+yFIAxwObAVsD6wDrAZGBsZCg13jTgAuAM4I7YKJKUrcgCsB6wCzCFtPMfE5hFGkoPcCnwBeCe4CySVEkrAPsDN5DeVN3cqrTNAT6HJKllk4HTgXnEv4m7uXW6nQ6MRJI0qI2BXwGLiH/TdnPLcjud8pxDI0ltG5HT464AnAT8CNgQ3yhVP28GZgPXRQeRpOHIesfcDewLHAu8OuPHlspmPvB24LboIJLUriwLwGuBc0iX8klNcSPpKpbF0UEkqR1ZTQG8B/gd6Rp+qUlWAx4HbooOIknt6PQIwAjg68AXM3gsqaqeBdbFlQMlVUgnRwCWAc4GPoU7fzXbssDKwEXRQSSpVcPdcY8Hzgfel2EWqcp6SFNhV0UHkaRWDKcAvBq4Atgk4yxS1U0l/V7Mjw4iSUvT7hTAWOAy4G05ZJGqbkXgBeDa6CCStDTtHAEYBVwMbJdTFqkOXiAtfvVAdBBJGkp3i9/XRVr61J2/NLSxwAnRISRpaVqdAjgEODTPIFKNTAZuBe6ODiJJg2llCuCtpDnNZXLOItXJQ6SFsWZHB5GkJVnaEYBJwB9IN/eR1LrlSFNsV0YHkaQlWdoRgDOBvYoIItXQAlwcSOrEPNJRtBnALOBR4C7S9NqzgblqYagC8C7g6qV8jyRJEZ4CbgeuIS3AdSOwMDRRxQy2cx9FusWpN/eRJFXBLOCPwC+BC4E5oWkqYLACcChwfJFBJEnKyEzgPODnwJ9jo5TXkgrAeGAaaclfSZKq7FbgWFIh6AnOUipLWgjos7jzlyTVwybAr4FbgJ2Cs5TKwCMAY4D7gdcEZJEkKW9XA/uRriZotIFHAPbFnb8kqb62Jh0N+CrpQ29jDTwCcBuwcUQQSZIKNhX4CPD36CAR+h8B2BB3/pKk5lgfuB7YPTpIhJH9/v9jUSGGMJe0wMPlpPmaZ3D1Jw3fdsAp0SEklcoE4GxgC+BAYFFsnOL0TQGMAB4BVgnM0t/9pPmZC0iLO0hZ6CKdAPSu6CCSSuki0tGARiwi1FcANgP+Ghmk1yzgK8APgfnBWVRP65POdRkVHURSKf0Z2IF0/4Fa6zsHYOvQFMk00iGYk3Dnr/xMBb4THUJSaW1FOlI4KTpI3voKwJTQFOkT2duAO4JzqBmOAR6MDiGptN4MXAwsGx0kT92kEwG3CMzwBLAj6c5OUhFeAA6KDiGp1N4J/IqXnyxfK93AeqSzICMsAnYGHgoaX811MfA/0SEkldqHgBOjQ+SlG1g3cPzTgOsCx1ezHQDMjg4hqdQ+C+wZHSIPkQVgDvBfQWNLkI48fS06hKTS+wGxH5Zz0Q2sEzT2WaS1B6RI3yFdGSBJgxkPnEvN7h3QDawZNPZFQeNK/S0gHeLzPuGShrIxcHh0iCx1A8sFjPs8aYlfqQyuIR2RkqShHAasHR0iK93EXAFwCzAvYFxpMIfifSYkDW0MNbqfSDdpbqNo9weMKQ3lSeDL0SEkld62wE7RIbIQdQTguYAxpaX5MXBjdAhJpXcUL91Lp7K6ibkpimv9q4wWA58EFkYHkVRqmwDbR4foVPfSv0VqlDtI1/xK0lCOjA7QKQuA9EpHAo9Fh5BUam8n3TmwsiwA0is9B3w+OoSk0ts7OkAnuohZAOV40vWUUpldAbwnOkSvR/DcGTXPssBKwIjoIIN4DngNaWn7SuoJ2I4r5JlJnVkHmEvM78jAzXsWqKmWATYDjgZuJf53ceC2W27PvAAWAGlw/0X8G0wPqYhMzvm5SlXwdtLqndG/k31bpZe1twBIg1sWuI/4N5ke4Mqcn6tUJTuTVu+M/r18DhiZ83PNjQVAGtq2xL/J9G275/xcpSpZm3Q3z+jfy7fn/UTz4FUA0tJdDpwXHaLXd4i5gZdURvcBWwJ3B+eYEjz+sFgApNYcQrqLZbRV8IRAqb9ngB2BGYEZtg4cuyNOAUit+Rzxhxp7SEsVb5rzc5WqZmfificfL+D55cICILVmJOW5DOkmyntttBTlSuJ+JycV8Pwy5RSA1LqFwH6kX/ZomwKfig4hlUzkLb0rd5muBUBqz3XAadEheh1LWoVMUnIDcHvQ2BYAqQEOA56ODgFMJC2rLeklFweNu3rQuMNmAZDa9y/Kcy+LPajwGchSDi4JGndC0LjDZgGQhud00nKk0bqAHwKjo4NIJXEnsChg3PEBY3bEAiANTw9wAOnEwGjr4O2LpT7ziJmimxgwZkcsANLw3QmcGB2i11eANaJDSCURsWiXRwCkhjkKeDA6BDAW+H50CKkkIqYAKrc/rVxgqWReoDyH398P7BQdQlI1WACkzp0PXBodotdJVPBQpKTiWQCkbOwPzI4OQboW+cjoEJLKzwIgZeNBynOPi88BG0eHkFRuFgApO8cB/4gOQbpp0SmkNQIkaYksAFJ25gOfphw3C9oS2Cc6hKTysgBI2boGODc6RK9vAytEh5BUThYAKXuHADOiQwCvBr4eHUJSOVkApOw9QVogqAz+A9g8OoSk8rEASPk4FbgxOgTpd/xHpBMDJelFFgApH4uB/YhZknSgjUhZJOlFFgApPzcBP44O0esYYLXoEJLKwwIg5etw4LHoEMAE4LvRISSVhwVAytdM4LDoEL0+AmwfHUJSOVgApPydBVwVHaLXicCY6BCS4lkApGJ8BpgXHQJYm/IckZAUyAIgFeMeyjMH/yVgcnQISbEsAFJxjgEeiA4BjAZOjg4hKZYFQCrOHMpzPf57SScFSmooC4BUrMuAi6ND9DoRWC46hKQYFgCpeAcAs6JDAKsAR0eHkBTDAiAV72Hga9Eheh0AbBIdQlLxLABSjO8Ad0SHAEaQbhbke4HUMP7SSzEWkk4I7IkOAryVdNtgSQ1iAZDiXAucGR2i17HAStEhJBXHAiDF+jzwdHQI4FXAcdEhJBXHAiDF+hdwRHSIXvsAW0eHkFQMC4AU7yfA9dEhgC7SCoGjooNIyp8FQIq3GPgU6cTAaBsAB0eHkJQ/C4BUDncCp0aH6HU08IbgDJJyZgGQyuNI4NHoEMBY4HvRISTlywIglcfzpKsCymAn4EPRISTlxwIglcuvgN9Gh+h1CjAuOoSkfIyMDiDpFQ4GpgBjgnO8DniMcpycKLVjYsCY2wL/BGYCs3u3J4C7gXv6/XduQLYlsgBI5XMvaVGe/4wOAkyIDiBVxBhgzaV8zyLgNuAPwP8CfyRN/YXoImYt8uOBwwLGlapiDOnKgLWjg0jKzVzSlN+ZwGXA/CIH9xwAqZzmAvtHh5CUqzHAzsBFpCuATgYmFzW4BUAqr8uB/44OIakQK5BK/1TgEmCzvAe0AEjldgiBc4SSCtcNfBC4EbgYWCfPgSSV16OU42RAScXqAnYA/gacCIzPegALgFR+J5POHJbUPKOAA4E7gPdn+cAWAKn8FgL/n3TTIEnNtAbpioETgWWyeEALgFQNfwV+Fh1CUqgu0tGAa0mFoCMWAKk6Dgeeig4hKdxbgZuALTp5EAuAVB3P4AJakpJXAVcCuwz3ASwAUrX8nLR8qCSNJt1A7JPD+WELgFQtPcABwILoIJJKYQTwI2Dfdn/QAiBVz9+AE6JDSCqNLlIJaGs6wAIgVdPRwLTgDJLKYwTwC2CrVn/AAiBV0wvA56JDSCqVMaTlg1u6RNACIFXXhaSbhkhSn+WBX5NOEBySBUCqtv2B2dEhJJXKZsBxS/smC4BUbQ8B34gOIal0DgR2HOobLABS9X0buCs6hKRS6QJ+ACw32DdYAKTqmw98mrRGgCT1eQ1w5GB/aQGQ6uFPwFnRISSVzkHARkv6CwuAVB8Hkc4JkKQ+I4HvLekvLABSfcwAdgVmRQeRVCrbAJsP/KIFQKqXv5LO/H0+OoikUjli4BcsAFL9XAVsCdwfHURSaWwHbNL/CxYAqZ7uAN5EumnQ/OAskuJ1AQf3/4IFQKqv2cAhwNqktQIeiY0jKdjOwLi+P3QRc+3w8cBhAeNKTdYFbAxsSioFy/d+TVLnRgITgBWB9YCVY+MMam/6XTLcE7AtdY1iSZIq7M3AfwJTidnPDrb9vn9IC4AkSfnoBvYBHiR+598DLARe3RdMkiTlYzFwBjAZOC04C8AI4N1gAZAkqQhzgX1JJ+YuCs4yBSwAkiQV6QQGXI4XYGuwAEiSVLRTgB8Hjr8esJIFQJKk4h0A3Bs4/voWAEmSijcf+HLg+JMtAJIkxTgfuClo7HUtAJIkxegBzg4aex0LgCRJcS4KGndlC4AkSXGmAf8IGHeCBUCSpFhTA8a0AEiSFOyJgDEtAJIkBZsVMOY4C4AkSbF6AsbssgBIktRAFgBJkhrIAiBJUgNZACRJaiALgCRJDWQBkCSpgSwAkiQ1kAVAkqQGsgBIktRAFgBJkhrIAiBJUgNZACRJaiALgCRJDWQBkCSpgSwAkiQ1kAVAkqQGsgBIktRAFgBJkhrIAiBJUgNZACRJaiALgCRJDWQBkCSpgSwAkiQ1kAVAkqQGsgBIktRAFgBJkhrIAiBJUgNZACRJaiALgCRJDWQBkCSpgSwAkiQ1kAVAkqQGsgBIktRAFgBJkhrIAiBJUgNZACRJaiALgCRJDWQBkCSpgSwAkiQ1kAVAkqQGsgBIktRAFgBJkhrIAiBJUgNZACRJaiALgCRJDWQBkCSpgSwAkiQ1kAVAkqQGsgBIktRAFgBJkhrIAiBJUgNZACRJaqCR0QEkKVg38EZgQ2AFYBLwDDAduBN4KC6alB8LgKQm6gbeDXwU+CCwyhDfez9wPvDD3v+XaqMnYDuukGcmSS+3AXAs6VN9u+9bC4EzgJULT626O46YfbEFQFKtrQIcDNxMNu9fzwI7FPoMVHchBcCTACXV0Vhgd+A3wMPA94C3ZPTYk4CLgM9n9HhSCM8BkFQXffP6ewG7ABNyHKsL+DawADgpx3Gk3FgAJFXdesBuwN7AGgWP/V3gLuCKgseVOmYBkFRFrwJ2Je30twjMMQL4GamEzA7MIbXNcwAkVUX/ef0ngB8Ru/PvszpwaHQIqV0WAEll1g1sSdrZPwacDWxP+Y5eHgCMiw4htaNsv0SSBOl6/T2BPUifsMvuVcCOwDnRQaRWWQAklcXKpJX59iK7S/aKZAFQpVgAJEUaA7yXtNPfCRgVG6cjm0cHkNphAZBUtP7X6+8MTAxNk53VSc9lZnQQqRUWAElF6btefy9gzeAseVkBC4AqwgIgKU9Vn9dv1/joAFKrLACSslanef12dUUHkFplAZCUhW7gHaSd/r9Tn3l9qbYsAJI60YR5famWLACS2lWWdfgldcACIKkVTZ7Xl2rJAiBpMM7rSzVmAZA0kPP6UgNYACSB8/pS41gApOZyXl9qMAuA1CzO60sCLABSUzivL+llLABSfTmvL2lQFgCpXpzXl9QSC4BUfc7rS2qbBUCqLuf1JQ2bBUCqFuf1JWXCAiCVn/P6kjJnAZDKyXl9SbmyAEjl4ry+pEJYAKR4zutLKpwFQIqxLGk+f0/gffi7mKXbgGmk11fSILqjA0gN0g1sCfwIeBw4B9ged/5ZmA6cBGwKbAKcFxtHKj/feKT8Oa+fjznApcBZwGXAwtg4UrVYAKR8OK+fj8XA9cCZpCMos2LjSNVlAZCyMxrYGef183Ab6ZP+L4HHgrNIteAblNS5icCBwP7AysFZ6uRR4GzSjv9vwVmk2rEASJ15P+mkvtdFB6kJ5/WlglgApOE7DDgW6IoOUnHO60sBLADS8HwPODg6RMU5ry8FsgBI7fss7vyHazrpGv0zgFuCs0iNZgGQ2vMm4IToEBXzPHAh6dP+VaRD/pKCWQCk1nWRVpvzdrxL57y+VHIWAKl17wfeFR2i5JzXlyrCAiC17lPRAUrKeX2pgiwAUmsmAh+IDlEis4ALcF5fqiwLgNSazfH3xXl9qUaa/oYmtWqz6ACBnNeXasgCILVmlegABXNeX6o5C4DUmldFByiA8/pSg1gApNbU9XfFeX2poer6piZpaFNJO/0zcV5faiQLgNQczutLepEFQKq3OcClpHn9y4CFsXEklYUFQKof5/UlLZUFQKoP5/UltcwCIFWb8/qShsUCIFWP8/qSOmYBkKrBeX1JmbIASOXmvL6kXFgApPKaBmwQHUJSPXVHB5AkScWzAEiS1EAWAEmSGsgCIElSA1kAJElqIAuAJEkNZAGQJKmBLACSJDWQBUCSpAayAEiS1EAWAEmSGsgCIElSA1kAJElqIAuAJEkNZAGQJKmBLACSJDWQBUCSpAayAEiS1EAWAEmSGsgCIElSA1kAJElqIAuAJEkNZAGQJKmBLACSJDWQBUCSpAayAEiS1EAWAEmSGsgCIElSA1kAJElqIAuAJEkNZAGQJKmBLACSJDWQBUCSpAYaGR1AUiMtA6wPrANMBtYD1gAmAuN6/zsRWATMBp4H5gAPAw/0bvcBNwIPFpxdqgULgKQijAQ2BbYGpgBbAGNb+LkRpLKwfO+fJy/hex4HbgCuAv4HmNZhVqkRLACS8rQpsDfwUWDFnMZYBdixdzsRuB14LKexpNqwAEjK2jjgk8B/ABsEjL9x7yZpCBYASVmZAHwCOJz0qVxSiVkAJHVqNHBo7zYxOIukFlkAJHVia+BU0ln8kirEAiBpOFYg7fg/Eh1E0vBYACS1623Ar4A3BOeQ1AFXApTUqi7gIOBa3PlLlecRAEmtGAOcA3w4OoikbFgAJC3NeOAC4L3RQSRlxwIgaSgrA5cBm0QHkZQtC4CkwbyatL7++tFBJGXPkwAlLclY4GLc+Uu1ZQGQNNAo4DzSHfsk1ZQFQNJA3wO2iw4hKV8WAEn97QrsFx1CUv4sAJL6rAX8NDqEpGJ4FYDqahTpErZxpOvYJ5HuWjcfmA3MBf4FTAcWBmUsk5HAucBy0UEkFcMCoDpYnXRXug2BycC6wJq09u97IfAw8ABwF3AD8Bfg3lySltcBwGbRISQVxwKgKhoLfBB4D2nHv3YHjzUSWKN3m8JL899PA5eTLoX7XQePXwWrAl+NDiGpWBYAVUU38E5gH2AXYELO460A7NG7zSNNGdTVd8n/9ZRUMhYAld2ywL7A54m7A93o3q2O3gHsFh1CUvEsACqr8aQd/xdJh6iVjyOiA0iKYQFQ2XQBewPHAysFZ6m7TYD3R4eQFMMCoDKZDJxCOrlP+fsKqXBJaiAXAlIZjACOBu7EnX9RVgc+HB1CUhyPACjaSsBZwPuigzTMXvgBQGo0C4AivQc4G+f6I+wZHWAQM4BbgGm9/z+KtIrjOsBbev8sKQMWAEXZh7TuvP8Gi/dWYL3oEP3MAs4ELgL+CCwY5PsmAduTbli0Ix7BkDriL5AifAE4HXf+UXaNDtBrAfB90kqO+wFXMPjOH9IRgXOAnYFNgd/nHVCqMwuAinYc8C08+zzSlOgAwCPA5qQd/xPD+PnbgG2Bj5NWapTUJguAinQUaWEfxZlEuv4/0g3A24CbM3isn5MKzXBKhNRoFgAV5VN4w5kyeBfpsssod5MWH3osw8e8DtgOeCHDx5RqzwKgIuwCnBodQgBsGTj2s8AOpLn8rN1KWjq6J4fHlmrJAqC8rQ+cQeynTr0k8uz/LwD35Pj455JOEpTUAguA8jSG9IY8LjqIXrRu0Lh3kS71y9sReFKg1BILgPJ0KrBxdAi9aDRxt1Q+AlhYwDjTgB8XMI5UeRYA5WVn4BPRIfQyaxEzFTMT+E2B451b4FhSZVkAlIexwHejQ+gVVgwa97cUe1j+L8DjBY4nVZIFQHn4KvD66BB6hfFB415R8HiLgSsLHlOqHAuAsrYhcFB0CC3RhKBx/9GQMaVKsQAoa8fgHdvKKqoAPBkw5lMBY0qVYgFQljYg3aVN5bRM0LjzA8acGzAmwKKgcaW2WQCUpS/jTX7KbHbQuBHnHkQd7Xg+aFypbRYAZWUtYLfoEBpS1M4p4oTQ1wWMCRYAVYgFQFnZF5f7LbtZQeNG3H3wLQFjggVAFWIBUBa6gT2iQ2ipZgaNu0PB400C3lnwmJDOO1gQMK40LCOjA6gW3k3cIdeh3A9cCtwJPEx6c+4GViOdsLgd6bLFpngoaNy3AqsC0wsabztirkSJen2lYbEAKAt7RwfoZz7wQ+BnwB1L+d4vks5d2Bv4HHEL5RRlOukQddEnyHUDnwGOLGi8zxY0zkCuPaDK6QnYjivkmakIXaTrvCP+HQ3cfg2sOcznsTLwfdIqctHPo297YJjPZSg3BT2XWcBrcng+A+0Y9Px6gOMLeH6qp+MI+DfrOQDq1IbErTHfZyFwAPAR0mH/4XiC9Mnx34i7XK4IdweNOw44NucxxhL74SLqtZWGxQKgTk0JHn8usD1wSkaPdz6wJfVdSe62wLH3AT6d02N3AacDk3N6/FbcHji21DYLgDq1deDYPaTLD7O+2cxtwK7ErGCXtz8Gj38SsE0Oj3sU6QhQlGeBWwPHl9pmAVCn3h449vHAOTk99p+AA3N67Ei3ADMCxx8F/Ab4WIaP933g6Iweb7iuwWWAVTEWAHViOWCVoLEfIv83/R+T7i1fJ4tI5SbSaNLh+hOBiR08zlrA70lXGES7KjqA1C4LgDoROd96JPnf8KWHdKlg3fw+OkCvA4H7SCdwjm7j51YilYeppDUoyqAsr6nUlojLZbwMsB72Iubfz4MUW16vyel5LG17IKfnsyLp/IaI5zTY9hxwLvBR0qWc/ZeVHg1sRCoMfyAt6BSdt/92U6svvDSIkMsAXQhInVg7aNyLSdfrF+VCYpaWzctTwGUUv0TvUCaSbibV/4ZSM0iLlZV9gaazogNIw+EUgDoxKWjcCwse76KCxytCFXZakyj/zn8h6ciFVDkWAHUi4s15MXB9wWNOAx4teMy8XUJ91zoo0m9Ji0hJlWMBUCciCsCj5H/y35L8M2DMPM0jnUinzng+kyrLAqBOFH1TGYi7hv3ZoHHzdDKxawJU3VXAddEhpOGyAEjlNS/nx58JnJrzGHX29egAUicsAOrE8wFjRp14uHzAmLMKGOME6nl0I2/X4OI/qjgLgDpRxA5qoNWAZQPGfWPAmDMLGONp4IgCxqmThcBB0SGkTlkA1ImIAtANvKPgMdeimHvZD1TUEZYfAjcUNFYdnIB3/lMNWADUiahDxzsVPF7UgjlFnaC3mLQcb5GLK1XVI8BXo0NIWbAAqBNRl8btyMuXis3bhwscq78iX9+/4iVtS7OYdPvpiCNfUuYsAOrE3UHjrk66D0ER3glsVdBYA/2j4PGOAv5c8JhV8g286Y9qxAKgTkQVAICvAWNzHqML+GbOYwyl6Nd3IbA76cRAvdyf8NC/asYCoE48BzwWNPZqwNE5j/FpYPOcxxjMYuDegHEfAfYklQElj5LuUuhrolqxAKhTNwaOfSiwR06PvSXpbO8odwIvBI19OfAx0i1Dm+454APA9OggUtYsAOpU9GIoPwXel/Fjvpl0x8FlMn7cdkS/rmcDhwVniDYH+BBe8qeasgCoU9E7qjHAb4ADM3q8XYFrgRUyerzhin5dAb4FHB8dIsh80mF/T4pUrfUEbF5uVB9dpNuhRvw7GridR1q0ZzhWIS2Is7gEz2MBMHGYzyMPX6Icr0tR20zgvZm8clJrjiPm33rIoBaAejmN+Dftvm0ecBKwcYvZ3wgcQ1p1Lzp733Zli9mL9AlSMYl+bfLengA2zeg1k1oVUgBGFvLUVHdnAR+PDtFrGdKqdgcAD5CmB+4gnd0+DxgFrApsAGwHrB8Tc0i/iA6wBKcBT5KyLRecJS9TSYtM3RcdRCpKRMv2CEC9dJF2ttGf3uqwvUC5d7CvB64n/nXKejsTGJfh6yS1I+QIgCcBKgs9wDnRIWriQtKlZ2X1IGl1xL43rKqbAxwM7A3MDs4iFcoCoKz8DBdKycJPogO0YAFwOOnyy3uCs3TiMmAj4MToIFIEC4Cycj9wbnSIirse+GN0iDb8AdiQ9Am6SjfImQ7sA2xP3A2tpHAWAGXpWLylbCeOiQ4wDAtIn6A3Ii3KND82zpCeBo4A1iHN+UuNZgFQlqYCF0WHqKhbgd9Fh+jANOCTwOtI5wdELWO8JE+SbuSzFvB1nOuXXhRxxq1XAdTXeqTL7aLP6q7a9p7hvNglthJpauAWYl7PBaRLQP+dtFqkVGYuBKTa+CbxO9QqbXU/d2JD0r+J28l3RcG5pHMoDgZWLuKJSRmxAKg2xpEuF4vesVZhm0lamKgpVgQ+AvwA+CvpksfhvnaPA1cD3yAdQVm2wOchZcmVAFUbs4GDSNe0a2hH0axbzT4F/Lp367MqsC7wBmB5UoEcT1oQaTGpJMwkXWnwLOnSw7uBGUWFlurIAqC8XES6pv2T0UFK7Crg5OgQJTCdZpUgqRS8CkB5OhC4LTpEST0O7AEsig4iqZksAMrTXNJ878zoICWziLTzfzw6iKTmsgAob/eSVl3zk+5LDiEd/pekMBYAFeEi4DPRIUri6zjvL6kELAAqyk9IZ7w32VnAkdEhJAksACrWMTR3DYhfAp8gXX8rSeEsACra4aQ1App006CTgT3xdsmSSsQCoAgnAXuT1muvsx7STWgOpFmFR1IFWAAU5WxgW+p7KdxMYDfg6OAckrREFgBFuhp4E3B5dJCM3QpsCvx3dBBJGowFQNGeArYnXSFQ9SmBHuAU4B3AfcFZIhIeVgAABe1JREFUJGlIFgCVwWLSFQIbAlcEZxmu24EtgQNIKyBKUqlZAFQm95DOC9gbeCI4S6tmku4/vxlwXXAWSWqZBUBl00NaMGct0o710dg4g3qetKbBGsCJeImfpIqxAKisZpN2rGsD+wH3x8Z50ePAl4HXktY0eCY2jiQNjwVAZTcX+D7piMBmpDUE/hWQ4VLSnQ1fBxyLdziUVHEjowNIbbi5dzucdOXANsAUYHIOYz1IukzxD8AluMOXVDMWAFXRHOD83g1gNWBr0lUEk4F1SUcMRrXwWIuAacDdwF3AVOAa4J+ZJpakkrEAqA4eBX4x4GsjgZWA8cAEYDlgDDAfmAHM6t2e7P2aJDWKBUB1tRCYHh1CksrKkwAlSWogC4AkSQ1kAZAkqYEsAJIkNZAFQJKkBrIASJLUQBYASZIayAIgSVIDWQAkSWogC4AkSQ1kAZAkqYEsAJIkNZAFQJKkBuoGFgSMu0zAmJIklVHEPnF+N/B8wMDLBYwpSVIZTQoYc1Y3MCtg4DUDxpQkqYzWDhhzZtQRgLcAowPGlSSpTMYAbw4Yd1Y38FzAwBOAbQLGlSSpTLYBxgeMO6MbuD9gYICdgsaVJKksovaF93cDdwcNvhewetDYkiRFWw3YPWjsf0QWgDHA0UFjS5IU7WvA2KCx7wbYCOgJ2hYCW+b9LCVJKpmtSPvAqP3vBgAjgZmBIZ7CywIlSc3xeuAJ4va7M4FRfWF+GxikB7gNWGn4r6UkSZWwMnA7sfvcS+ClewFcnd9zbcnGwM3ApsE5JEnKy5uAv/T+N9JV/f+wKbFtpG+bBRyCiwRJkupjNPB50j4uej/bQ/rQ/aIRwPQShOrb7gc+Bkxs6yWWJKk8JgIfBx4gfr/atz1M79H/rn5BvwV8Ietn36F5pOmJy4G7gKeBGaQnIUlSWXSRbuqzArA+sC2wNeW7++1xwOHw8gKwAfC3kDiSJKkIG9G7r+/u98W/k87GlyRJ9XML/T7odw/4y58Um0WSJBXkp/3/0DXgL8cA/wRWLSyOJEnK2+OkRffm9H1h4BGAucAJRSaSJEm5+xb9dv7wyiMAAOOAaaQzGSVJUrX9C3gDaR2CF41YwjcuABaRLmGQJEnV9mXgzwO/uKQjAJBuEHQTA1YLkiRJlXInabXfBQP/YuA5AH0WAvvjgjuSJFVVD2lf/oqdPwxeAACuBc7II5EkScrdacCfBvvLwaYA+kwgTQWsk2UiSZKUq/uAzYDnBvuGoY4AADwP7E5ak1+SJJXfPGA3htj5w5KvAhjoMWAmsF0GoSRJUr4OBC5Z2je1UgAAbiCtIORVAZIkldfpwJGtfOPSzgHobwRwHrDTcBJJkqRc/Ya0j17Yyje3UwAAlgWuALZo8+ckSVJ+bgC2AWa3+gNLOwlwoDnAjqRbCkqSpHg3A9vTxs4f2i8AkNYUfhdw+TB+VpIkZecqYArwTLs/OJwCAOmGAjsA5w7z5yVJUmcuAD5AulKvba1eBbAki4ALSfcN2JL2zyeQJEntWwwcA+zHIMv8tiKrnfYU4GxglYweT5IkvdJTwN7A7zp9oCw/ta9KKgHvzvAxJUlSchWwJ2mBvo4N9xyAJZlOOhKwD/Bkho8rSVKTPQMcDLyXjHb+0Nk5AIO5HfgZac2Azci2ZEiS1BSLgV8AHwKuJt3eNzN5FACAuaT5ifNJdxTcAIuAJEmtWExa1e+jwA+AF/IYpKgz998IfAnYA1imoDElSaqS+cBZwDdJt/PNVdGX7k0irR+wF2nJQi8dlCQ13c2kHf85pLP8CxG5A34jsAvpxMEtgLGBWSRJKsoLwLWks/ovAO6NCFGWT+Cjgf8HbAWsD6wDTAbGR4aSJKlDzwP39G5/B/5MunHPvMhQUJ4CMJhVSYsLjQfG9f53+dBEkiQt2bOkpfJn9/73cdIl8pIkSZIkSZIkSZIkSZIkSZIkSZIkSZIkSZIkSZIkSZIkSZIkSZIkSZIkSZIkSZIkSZIkSZIkSZIkSZIkSZIkSZIkSZIkSZIkqU3/B/XhJ9Mwop6xAAAAAElFTkSuQmCC;" vertex="1" parent="1">
          <mxGeometry x="150" y="140" width="32" height="32" as="geometry" />
        </mxCell>
        <mxCell id="WdoEh3YIsQ9yu6LuEiXz-18" value="" style="shape=image;verticalLabelPosition=bottom;labelBackgroundColor=#ffffff;verticalAlign=top;aspect=fixed;imageAspect=0;image=data:image/png,iVBORw0KGgoAAAANSUhEUgAAAgAAAAIACAYAAAD0eNT6AAAABHNCSVQICAgIfAhkiAAAAAlwSFlzAAAOxAAADsQBlSsOGwAAABl0RVh0U29mdHdhcmUAd3d3Lmlua3NjYXBlLm9yZ5vuPBoAACAASURBVHic7d15mB1lnfbxb3cSErIRlE0QlUXCKiKoLwIqQUVQAYGRkVVlfF3YVQQVGBxUBDdWd0FAEB3WAUVEQJQBQXY0yCKELaxCCAnZ0/PH0w1Nk+6c06eqfrV8P9dVF6TTfZ77nCt96j71VD0FkiRJkiRJkiRJkiRJkiRJkiRJkiRJkiRJkiRJkiRJkiRJkiRJkiRJkiRJkiRJkiRJkiRJkiRJkiRJkiRJkiRJkiRJkiRJkiSVV1d0gCF0Aa8FVgLGA+N6t+UjQ6nWeoAZwFPAVODJ2DiSlJ+yFIAxwObAVsD6wDrAZGBsZCg13jTgAuAM4I7YKJKUrcgCsB6wCzCFtPMfE5hFGkoPcCnwBeCe4CySVEkrAPsDN5DeVN3cqrTNAT6HJKllk4HTgXnEv4m7uXW6nQ6MRJI0qI2BXwGLiH/TdnPLcjud8pxDI0ltG5HT464AnAT8CNgQ3yhVP28GZgPXRQeRpOHIesfcDewLHAu8OuPHlspmPvB24LboIJLUriwLwGuBc0iX8klNcSPpKpbF0UEkqR1ZTQG8B/gd6Rp+qUlWAx4HbooOIknt6PQIwAjg68AXM3gsqaqeBdbFlQMlVUgnRwCWAc4GPoU7fzXbssDKwEXRQSSpVcPdcY8Hzgfel2EWqcp6SFNhV0UHkaRWDKcAvBq4Atgk4yxS1U0l/V7Mjw4iSUvT7hTAWOAy4G05ZJGqbkXgBeDa6CCStDTtHAEYBVwMbJdTFqkOXiAtfvVAdBBJGkp3i9/XRVr61J2/NLSxwAnRISRpaVqdAjgEODTPIFKNTAZuBe6ODiJJg2llCuCtpDnNZXLOItXJQ6SFsWZHB5GkJVnaEYBJwB9IN/eR1LrlSFNsV0YHkaQlWdoRgDOBvYoIItXQAlwcSOrEPNJRtBnALOBR4C7S9NqzgblqYagC8C7g6qV8jyRJEZ4CbgeuIS3AdSOwMDRRxQy2cx9FusWpN/eRJFXBLOCPwC+BC4E5oWkqYLACcChwfJFBJEnKyEzgPODnwJ9jo5TXkgrAeGAaaclfSZKq7FbgWFIh6AnOUipLWgjos7jzlyTVwybAr4FbgJ2Cs5TKwCMAY4D7gdcEZJEkKW9XA/uRriZotIFHAPbFnb8kqb62Jh0N+CrpQ29jDTwCcBuwcUQQSZIKNhX4CPD36CAR+h8B2BB3/pKk5lgfuB7YPTpIhJH9/v9jUSGGMJe0wMPlpPmaZ3D1Jw3fdsAp0SEklcoE4GxgC+BAYFFsnOL0TQGMAB4BVgnM0t/9pPmZC0iLO0hZ6CKdAPSu6CCSSuki0tGARiwi1FcANgP+Ghmk1yzgK8APgfnBWVRP65POdRkVHURSKf0Z2IF0/4Fa6zsHYOvQFMk00iGYk3Dnr/xMBb4THUJSaW1FOlI4KTpI3voKwJTQFOkT2duAO4JzqBmOAR6MDiGptN4MXAwsGx0kT92kEwG3CMzwBLAj6c5OUhFeAA6KDiGp1N4J/IqXnyxfK93AeqSzICMsAnYGHgoaX811MfA/0SEkldqHgBOjQ+SlG1g3cPzTgOsCx1ezHQDMjg4hqdQ+C+wZHSIPkQVgDvBfQWNLkI48fS06hKTS+wGxH5Zz0Q2sEzT2WaS1B6RI3yFdGSBJgxkPnEvN7h3QDawZNPZFQeNK/S0gHeLzPuGShrIxcHh0iCx1A8sFjPs8aYlfqQyuIR2RkqShHAasHR0iK93EXAFwCzAvYFxpMIfifSYkDW0MNbqfSDdpbqNo9weMKQ3lSeDL0SEkld62wE7RIbIQdQTguYAxpaX5MXBjdAhJpXcUL91Lp7K6ibkpimv9q4wWA58EFkYHkVRqmwDbR4foVPfSv0VqlDtI1/xK0lCOjA7QKQuA9EpHAo9Fh5BUam8n3TmwsiwA0is9B3w+OoSk0ts7OkAnuohZAOV40vWUUpldAbwnOkSvR/DcGTXPssBKwIjoIIN4DngNaWn7SuoJ2I4r5JlJnVkHmEvM78jAzXsWqKmWATYDjgZuJf53ceC2W27PvAAWAGlw/0X8G0wPqYhMzvm5SlXwdtLqndG/k31bpZe1twBIg1sWuI/4N5ke4Mqcn6tUJTuTVu+M/r18DhiZ83PNjQVAGtq2xL/J9G275/xcpSpZm3Q3z+jfy7fn/UTz4FUA0tJdDpwXHaLXd4i5gZdURvcBWwJ3B+eYEjz+sFgApNYcQrqLZbRV8IRAqb9ngB2BGYEZtg4cuyNOAUit+Rzxhxp7SEsVb5rzc5WqZmfificfL+D55cICILVmJOW5DOkmyntttBTlSuJ+JycV8Pwy5RSA1LqFwH6kX/ZomwKfig4hlUzkLb0rd5muBUBqz3XAadEheh1LWoVMUnIDcHvQ2BYAqQEOA56ODgFMJC2rLeklFweNu3rQuMNmAZDa9y/Kcy+LPajwGchSDi4JGndC0LjDZgGQhud00nKk0bqAHwKjo4NIJXEnsChg3PEBY3bEAiANTw9wAOnEwGjr4O2LpT7ziJmimxgwZkcsANLw3QmcGB2i11eANaJDSCURsWiXRwCkhjkKeDA6BDAW+H50CKkkIqYAKrc/rVxgqWReoDyH398P7BQdQlI1WACkzp0PXBodotdJVPBQpKTiWQCkbOwPzI4OQboW+cjoEJLKzwIgZeNBynOPi88BG0eHkFRuFgApO8cB/4gOQbpp0SmkNQIkaYksAFJ25gOfphw3C9oS2Cc6hKTysgBI2boGODc6RK9vAytEh5BUThYAKXuHADOiQwCvBr4eHUJSOVkApOw9QVogqAz+A9g8OoSk8rEASPk4FbgxOgTpd/xHpBMDJelFFgApH4uB/YhZknSgjUhZJOlFFgApPzcBP44O0esYYLXoEJLKwwIg5etw4LHoEMAE4LvRISSVhwVAytdM4LDoEL0+AmwfHUJSOVgApPydBVwVHaLXicCY6BCS4lkApGJ8BpgXHQJYm/IckZAUyAIgFeMeyjMH/yVgcnQISbEsAFJxjgEeiA4BjAZOjg4hKZYFQCrOHMpzPf57SScFSmooC4BUrMuAi6ND9DoRWC46hKQYFgCpeAcAs6JDAKsAR0eHkBTDAiAV72Hga9Eheh0AbBIdQlLxLABSjO8Ad0SHAEaQbhbke4HUMP7SSzEWkk4I7IkOAryVdNtgSQ1iAZDiXAucGR2i17HAStEhJBXHAiDF+jzwdHQI4FXAcdEhJBXHAiDF+hdwRHSIXvsAW0eHkFQMC4AU7yfA9dEhgC7SCoGjooNIyp8FQIq3GPgU6cTAaBsAB0eHkJQ/C4BUDncCp0aH6HU08IbgDJJyZgGQyuNI4NHoEMBY4HvRISTlywIglcfzpKsCymAn4EPRISTlxwIglcuvgN9Gh+h1CjAuOoSkfIyMDiDpFQ4GpgBjgnO8DniMcpycKLVjYsCY2wL/BGYCs3u3J4C7gXv6/XduQLYlsgBI5XMvaVGe/4wOAkyIDiBVxBhgzaV8zyLgNuAPwP8CfyRN/YXoImYt8uOBwwLGlapiDOnKgLWjg0jKzVzSlN+ZwGXA/CIH9xwAqZzmAvtHh5CUqzHAzsBFpCuATgYmFzW4BUAqr8uB/44OIakQK5BK/1TgEmCzvAe0AEjldgiBc4SSCtcNfBC4EbgYWCfPgSSV16OU42RAScXqAnYA/gacCIzPegALgFR+J5POHJbUPKOAA4E7gPdn+cAWAKn8FgL/n3TTIEnNtAbpioETgWWyeEALgFQNfwV+Fh1CUqgu0tGAa0mFoCMWAKk6Dgeeig4hKdxbgZuALTp5EAuAVB3P4AJakpJXAVcCuwz3ASwAUrX8nLR8qCSNJt1A7JPD+WELgFQtPcABwILoIJJKYQTwI2Dfdn/QAiBVz9+AE6JDSCqNLlIJaGs6wAIgVdPRwLTgDJLKYwTwC2CrVn/AAiBV0wvA56JDSCqVMaTlg1u6RNACIFXXhaSbhkhSn+WBX5NOEBySBUCqtv2B2dEhJJXKZsBxS/smC4BUbQ8B34gOIal0DgR2HOobLABS9X0buCs6hKRS6QJ+ACw32DdYAKTqmw98mrRGgCT1eQ1w5GB/aQGQ6uFPwFnRISSVzkHARkv6CwuAVB8Hkc4JkKQ+I4HvLekvLABSfcwAdgVmRQeRVCrbAJsP/KIFQKqXv5LO/H0+OoikUjli4BcsAFL9XAVsCdwfHURSaWwHbNL/CxYAqZ7uAN5EumnQ/OAskuJ1AQf3/4IFQKqv2cAhwNqktQIeiY0jKdjOwLi+P3QRc+3w8cBhAeNKTdYFbAxsSioFy/d+TVLnRgITgBWB9YCVY+MMam/6XTLcE7AtdY1iSZIq7M3AfwJTidnPDrb9vn9IC4AkSfnoBvYBHiR+598DLARe3RdMkiTlYzFwBjAZOC04C8AI4N1gAZAkqQhzgX1JJ+YuCs4yBSwAkiQV6QQGXI4XYGuwAEiSVLRTgB8Hjr8esJIFQJKk4h0A3Bs4/voWAEmSijcf+HLg+JMtAJIkxTgfuClo7HUtAJIkxegBzg4aex0LgCRJcS4KGndlC4AkSXGmAf8IGHeCBUCSpFhTA8a0AEiSFOyJgDEtAJIkBZsVMOY4C4AkSbF6AsbssgBIktRAFgBJkhrIAiBJUgNZACRJaiALgCRJDWQBkCSpgSwAkiQ1kAVAkqQGsgBIktRAFgBJkhrIAiBJUgNZACRJaiALgCRJDWQBkCSpgSwAkiQ1kAVAkqQGsgBIktRAFgBJkhrIAiBJUgNZACRJaiALgCRJDWQBkCSpgSwAkiQ1kAVAkqQGsgBIktRAFgBJkhrIAiBJUgNZACRJaiALgCRJDWQBkCSpgSwAkiQ1kAVAkqQGsgBIktRAFgBJkhrIAiBJUgNZACRJaiALgCRJDWQBkCSpgSwAkiQ1kAVAkqQGsgBIktRAFgBJkhrIAiBJUgNZACRJaiALgCRJDWQBkCSpgSwAkiQ1kAVAkqQGsgBIktRAFgBJkhrIAiBJUgNZACRJaqCR0QEkKVg38EZgQ2AFYBLwDDAduBN4KC6alB8LgKQm6gbeDXwU+CCwyhDfez9wPvDD3v+XaqMnYDuukGcmSS+3AXAs6VN9u+9bC4EzgJULT626O46YfbEFQFKtrQIcDNxMNu9fzwI7FPoMVHchBcCTACXV0Vhgd+A3wMPA94C3ZPTYk4CLgM9n9HhSCM8BkFQXffP6ewG7ABNyHKsL+DawADgpx3Gk3FgAJFXdesBuwN7AGgWP/V3gLuCKgseVOmYBkFRFrwJ2Je30twjMMQL4GamEzA7MIbXNcwAkVUX/ef0ngB8Ru/PvszpwaHQIqV0WAEll1g1sSdrZPwacDWxP+Y5eHgCMiw4htaNsv0SSBOl6/T2BPUifsMvuVcCOwDnRQaRWWQAklcXKpJX59iK7S/aKZAFQpVgAJEUaA7yXtNPfCRgVG6cjm0cHkNphAZBUtP7X6+8MTAxNk53VSc9lZnQQqRUWAElF6btefy9gzeAseVkBC4AqwgIgKU9Vn9dv1/joAFKrLACSslanef12dUUHkFplAZCUhW7gHaSd/r9Tn3l9qbYsAJI60YR5famWLACS2lWWdfgldcACIKkVTZ7Xl2rJAiBpMM7rSzVmAZA0kPP6UgNYACSB8/pS41gApOZyXl9qMAuA1CzO60sCLABSUzivL+llLABSfTmvL2lQFgCpXpzXl9QSC4BUfc7rS2qbBUCqLuf1JQ2bBUCqFuf1JWXCAiCVn/P6kjJnAZDKyXl9SbmyAEjl4ry+pEJYAKR4zutLKpwFQIqxLGk+f0/gffi7mKXbgGmk11fSILqjA0gN0g1sCfwIeBw4B9ged/5ZmA6cBGwKbAKcFxtHKj/feKT8Oa+fjznApcBZwGXAwtg4UrVYAKR8OK+fj8XA9cCZpCMos2LjSNVlAZCyMxrYGef183Ab6ZP+L4HHgrNIteAblNS5icCBwP7AysFZ6uRR4GzSjv9vwVmk2rEASJ15P+mkvtdFB6kJ5/WlglgApOE7DDgW6IoOUnHO60sBLADS8HwPODg6RMU5ry8FsgBI7fss7vyHazrpGv0zgFuCs0iNZgGQ2vMm4IToEBXzPHAh6dP+VaRD/pKCWQCk1nWRVpvzdrxL57y+VHIWAKl17wfeFR2i5JzXlyrCAiC17lPRAUrKeX2pgiwAUmsmAh+IDlEis4ALcF5fqiwLgNSazfH3xXl9qUaa/oYmtWqz6ACBnNeXasgCILVmlegABXNeX6o5C4DUmldFByiA8/pSg1gApNbU9XfFeX2poer6piZpaFNJO/0zcV5faiQLgNQczutLepEFQKq3OcClpHn9y4CFsXEklYUFQKof5/UlLZUFQKoP5/UltcwCIFWb8/qShsUCIFWP8/qSOmYBkKrBeX1JmbIASOXmvL6kXFgApPKaBmwQHUJSPXVHB5AkScWzAEiS1EAWAEmSGsgCIElSA1kAJElqIAuAJEkNZAGQJKmBLACSJDWQBUCSpAayAEiS1EAWAEmSGsgCIElSA1kAJElqIAuAJEkNZAGQJKmBLACSJDWQBUCSpAayAEiS1EAWAEmSGsgCIElSA1kAJElqIAuAJEkNZAGQJKmBLACSJDWQBUCSpAayAEiS1EAWAEmSGsgCIElSA1kAJElqIAuAJEkNZAGQJKmBLACSJDWQBUCSpAYaGR1AUiMtA6wPrANMBtYD1gAmAuN6/zsRWATMBp4H5gAPAw/0bvcBNwIPFpxdqgULgKQijAQ2BbYGpgBbAGNb+LkRpLKwfO+fJy/hex4HbgCuAv4HmNZhVqkRLACS8rQpsDfwUWDFnMZYBdixdzsRuB14LKexpNqwAEjK2jjgk8B/ABsEjL9x7yZpCBYASVmZAHwCOJz0qVxSiVkAJHVqNHBo7zYxOIukFlkAJHVia+BU0ln8kirEAiBpOFYg7fg/Eh1E0vBYACS1623Ar4A3BOeQ1AFXApTUqi7gIOBa3PlLlecRAEmtGAOcA3w4OoikbFgAJC3NeOAC4L3RQSRlxwIgaSgrA5cBm0QHkZQtC4CkwbyatL7++tFBJGXPkwAlLclY4GLc+Uu1ZQGQNNAo4DzSHfsk1ZQFQNJA3wO2iw4hKV8WAEn97QrsFx1CUv4sAJL6rAX8NDqEpGJ4FYDqahTpErZxpOvYJ5HuWjcfmA3MBf4FTAcWBmUsk5HAucBy0UEkFcMCoDpYnXRXug2BycC6wJq09u97IfAw8ABwF3AD8Bfg3lySltcBwGbRISQVxwKgKhoLfBB4D2nHv3YHjzUSWKN3m8JL899PA5eTLoX7XQePXwWrAl+NDiGpWBYAVUU38E5gH2AXYELO460A7NG7zSNNGdTVd8n/9ZRUMhYAld2ywL7A54m7A93o3q2O3gHsFh1CUvEsACqr8aQd/xdJh6iVjyOiA0iKYQFQ2XQBewPHAysFZ6m7TYD3R4eQFMMCoDKZDJxCOrlP+fsKqXBJaiAXAlIZjACOBu7EnX9RVgc+HB1CUhyPACjaSsBZwPuigzTMXvgBQGo0C4AivQc4G+f6I+wZHWAQM4BbgGm9/z+KtIrjOsBbev8sKQMWAEXZh7TuvP8Gi/dWYL3oEP3MAs4ELgL+CCwY5PsmAduTbli0Ix7BkDriL5AifAE4HXf+UXaNDtBrAfB90kqO+wFXMPjOH9IRgXOAnYFNgd/nHVCqMwuAinYc8C08+zzSlOgAwCPA5qQd/xPD+PnbgG2Bj5NWapTUJguAinQUaWEfxZlEuv4/0g3A24CbM3isn5MKzXBKhNRoFgAV5VN4w5kyeBfpsssod5MWH3osw8e8DtgOeCHDx5RqzwKgIuwCnBodQgBsGTj2s8AOpLn8rN1KWjq6J4fHlmrJAqC8rQ+cQeynTr0k8uz/LwD35Pj455JOEpTUAguA8jSG9IY8LjqIXrRu0Lh3kS71y9sReFKg1BILgPJ0KrBxdAi9aDRxt1Q+AlhYwDjTgB8XMI5UeRYA5WVn4BPRIfQyaxEzFTMT+E2B451b4FhSZVkAlIexwHejQ+gVVgwa97cUe1j+L8DjBY4nVZIFQHn4KvD66BB6hfFB415R8HiLgSsLHlOqHAuAsrYhcFB0CC3RhKBx/9GQMaVKsQAoa8fgHdvKKqoAPBkw5lMBY0qVYgFQljYg3aVN5bRM0LjzA8acGzAmwKKgcaW2WQCUpS/jTX7KbHbQuBHnHkQd7Xg+aFypbRYAZWUtYLfoEBpS1M4p4oTQ1wWMCRYAVYgFQFnZF5f7LbtZQeNG3H3wLQFjggVAFWIBUBa6gT2iQ2ipZgaNu0PB400C3lnwmJDOO1gQMK40LCOjA6gW3k3cIdeh3A9cCtwJPEx6c+4GViOdsLgd6bLFpngoaNy3AqsC0wsabztirkSJen2lYbEAKAt7RwfoZz7wQ+BnwB1L+d4vks5d2Bv4HHEL5RRlOukQddEnyHUDnwGOLGi8zxY0zkCuPaDK6QnYjivkmakIXaTrvCP+HQ3cfg2sOcznsTLwfdIqctHPo297YJjPZSg3BT2XWcBrcng+A+0Y9Px6gOMLeH6qp+MI+DfrOQDq1IbErTHfZyFwAPAR0mH/4XiC9Mnx34i7XK4IdweNOw44NucxxhL74SLqtZWGxQKgTk0JHn8usD1wSkaPdz6wJfVdSe62wLH3AT6d02N3AacDk3N6/FbcHji21DYLgDq1deDYPaTLD7O+2cxtwK7ErGCXtz8Gj38SsE0Oj3sU6QhQlGeBWwPHl9pmAVCn3h449vHAOTk99p+AA3N67Ei3ADMCxx8F/Ab4WIaP933g6Iweb7iuwWWAVTEWAHViOWCVoLEfIv83/R+T7i1fJ4tI5SbSaNLh+hOBiR08zlrA70lXGES7KjqA1C4LgDoROd96JPnf8KWHdKlg3fw+OkCvA4H7SCdwjm7j51YilYeppDUoyqAsr6nUlojLZbwMsB72Iubfz4MUW16vyel5LG17IKfnsyLp/IaI5zTY9hxwLvBR0qWc/ZeVHg1sRCoMfyAt6BSdt/92U6svvDSIkMsAXQhInVg7aNyLSdfrF+VCYpaWzctTwGUUv0TvUCaSbibV/4ZSM0iLlZV9gaazogNIw+EUgDoxKWjcCwse76KCxytCFXZakyj/zn8h6ciFVDkWAHUi4s15MXB9wWNOAx4teMy8XUJ91zoo0m9Ji0hJlWMBUCciCsCj5H/y35L8M2DMPM0jnUinzng+kyrLAqBOFH1TGYi7hv3ZoHHzdDKxawJU3VXAddEhpOGyAEjlNS/nx58JnJrzGHX29egAUicsAOrE8wFjRp14uHzAmLMKGOME6nl0I2/X4OI/qjgLgDpRxA5qoNWAZQPGfWPAmDMLGONp4IgCxqmThcBB0SGkTlkA1ImIAtANvKPgMdeimHvZD1TUEZYfAjcUNFYdnIB3/lMNWADUiahDxzsVPF7UgjlFnaC3mLQcb5GLK1XVI8BXo0NIWbAAqBNRl8btyMuXis3bhwscq78iX9+/4iVtS7OYdPvpiCNfUuYsAOrE3UHjrk66D0ER3glsVdBYA/2j4PGOAv5c8JhV8g286Y9qxAKgTkQVAICvAWNzHqML+GbOYwyl6Nd3IbA76cRAvdyf8NC/asYCoE48BzwWNPZqwNE5j/FpYPOcxxjMYuDegHEfAfYklQElj5LuUuhrolqxAKhTNwaOfSiwR06PvSXpbO8odwIvBI19OfAx0i1Dm+454APA9OggUtYsAOpU9GIoPwXel/Fjvpl0x8FlMn7cdkS/rmcDhwVniDYH+BBe8qeasgCoU9E7qjHAb4ADM3q8XYFrgRUyerzhin5dAb4FHB8dIsh80mF/T4pUrfUEbF5uVB9dpNuhRvw7GridR1q0ZzhWIS2Is7gEz2MBMHGYzyMPX6Icr0tR20zgvZm8clJrjiPm33rIoBaAejmN+Dftvm0ecBKwcYvZ3wgcQ1p1Lzp733Zli9mL9AlSMYl+bfLengA2zeg1k1oVUgBGFvLUVHdnAR+PDtFrGdKqdgcAD5CmB+4gnd0+DxgFrApsAGwHrB8Tc0i/iA6wBKcBT5KyLRecJS9TSYtM3RcdRCpKRMv2CEC9dJF2ttGf3uqwvUC5d7CvB64n/nXKejsTGJfh6yS1I+QIgCcBKgs9wDnRIWriQtKlZ2X1IGl1xL43rKqbAxwM7A3MDs4iFcoCoKz8DBdKycJPogO0YAFwOOnyy3uCs3TiMmAj4MToIFIEC4Cycj9wbnSIirse+GN0iDb8AdiQ9Am6SjfImQ7sA2xP3A2tpHAWAGXpWLylbCeOiQ4wDAtIn6A3Ii3KND82zpCeBo4A1iHN+UuNZgFQlqYCF0WHqKhbgd9Fh+jANOCTwOtI5wdELWO8JE+SbuSzFvB1nOuXXhRxxq1XAdTXeqTL7aLP6q7a9p7hvNglthJpauAWYl7PBaRLQP+dtFqkVGYuBKTa+CbxO9QqbXU/d2JD0r+J28l3RcG5pHMoDgZWLuKJSRmxAKg2xpEuF4vesVZhm0lamKgpVgQ+AvwA+CvpksfhvnaPA1cD3yAdQVm2wOchZcmVAFUbs4GDSNe0a2hH0axbzT4F/Lp367MqsC7wBmB5UoEcT1oQaTGpJMwkXWnwLOnSw7uBGUWFlurIAqC8XES6pv2T0UFK7Crg5OgQJTCdZpUgqRS8CkB5OhC4LTpEST0O7AEsig4iqZksAMrTXNJ878zoICWziLTzfzw6iKTmsgAob/eSVl3zk+5LDiEd/pekMBYAFeEi4DPRIUri6zjvL6kELAAqyk9IZ7w32VnAkdEhJAksACrWMTR3DYhfAp8gXX8rSeEsACra4aQ1App006CTgT3xdsmSSsQCoAgnAXuT1muvsx7STWgOpFmFR1IFWAAU5WxgW+p7KdxMYDfg6OAckrREFgBFuhp4E3B5dJCM3QpsCvx3dBBJGowFQNGeArYnXSFQ9SmBHuAU4B3AfcFZIhIeVgAABe1JREFUJGlIFgCVwWLSFQIbAlcEZxmu24EtgQNIKyBKUqlZAFQm95DOC9gbeCI4S6tmku4/vxlwXXAWSWqZBUBl00NaMGct0o710dg4g3qetKbBGsCJeImfpIqxAKisZpN2rGsD+wH3x8Z50ePAl4HXktY0eCY2jiQNjwVAZTcX+D7piMBmpDUE/hWQ4VLSnQ1fBxyLdziUVHEjowNIbbi5dzucdOXANsAUYHIOYz1IukzxD8AluMOXVDMWAFXRHOD83g1gNWBr0lUEk4F1SUcMRrXwWIuAacDdwF3AVOAa4J+ZJpakkrEAqA4eBX4x4GsjgZWA8cAEYDlgDDAfmAHM6t2e7P2aJDWKBUB1tRCYHh1CksrKkwAlSWogC4AkSQ1kAZAkqYEsAJIkNZAFQJKkBrIASJLUQBYASZIayAIgSVIDWQAkSWogC4AkSQ1kAZAkqYEsAJIkNZAFQJKkBuoGFgSMu0zAmJIklVHEPnF+N/B8wMDLBYwpSVIZTQoYc1Y3MCtg4DUDxpQkqYzWDhhzZtQRgLcAowPGlSSpTMYAbw4Yd1Y38FzAwBOAbQLGlSSpTLYBxgeMO6MbuD9gYICdgsaVJKksovaF93cDdwcNvhewetDYkiRFWw3YPWjsf0QWgDHA0UFjS5IU7WvA2KCx7wbYCOgJ2hYCW+b9LCVJKpmtSPvAqP3vBgAjgZmBIZ7CywIlSc3xeuAJ4va7M4FRfWF+GxikB7gNWGn4r6UkSZWwMnA7sfvcS+ClewFcnd9zbcnGwM3ApsE5JEnKy5uAv/T+N9JV/f+wKbFtpG+bBRyCiwRJkupjNPB50j4uej/bQ/rQ/aIRwPQShOrb7gc+Bkxs6yWWJKk8JgIfBx4gfr/atz1M79H/rn5BvwV8Ietn36F5pOmJy4G7gKeBGaQnIUlSWXSRbuqzArA+sC2wNeW7++1xwOHw8gKwAfC3kDiSJKkIG9G7r+/u98W/k87GlyRJ9XML/T7odw/4y58Um0WSJBXkp/3/0DXgL8cA/wRWLSyOJEnK2+OkRffm9H1h4BGAucAJRSaSJEm5+xb9dv7wyiMAAOOAaaQzGSVJUrX9C3gDaR2CF41YwjcuABaRLmGQJEnV9mXgzwO/uKQjAJBuEHQTA1YLkiRJlXInabXfBQP/YuA5AH0WAvvjgjuSJFVVD2lf/oqdPwxeAACuBc7II5EkScrdacCfBvvLwaYA+kwgTQWsk2UiSZKUq/uAzYDnBvuGoY4AADwP7E5ak1+SJJXfPGA3htj5w5KvAhjoMWAmsF0GoSRJUr4OBC5Z2je1UgAAbiCtIORVAZIkldfpwJGtfOPSzgHobwRwHrDTcBJJkqRc/Ya0j17Yyje3UwAAlgWuALZo8+ckSVJ+bgC2AWa3+gNLOwlwoDnAjqRbCkqSpHg3A9vTxs4f2i8AkNYUfhdw+TB+VpIkZecqYArwTLs/OJwCAOmGAjsA5w7z5yVJUmcuAD5AulKvba1eBbAki4ALSfcN2JL2zyeQJEntWwwcA+zHIMv8tiKrnfYU4GxglYweT5IkvdJTwN7A7zp9oCw/ta9KKgHvzvAxJUlSchWwJ2mBvo4N9xyAJZlOOhKwD/Bkho8rSVKTPQMcDLyXjHb+0Nk5AIO5HfgZac2Azci2ZEiS1BSLgV8AHwKuJt3eNzN5FACAuaT5ifNJdxTcAIuAJEmtWExa1e+jwA+AF/IYpKgz998IfAnYA1imoDElSaqS+cBZwDdJt/PNVdGX7k0irR+wF2nJQi8dlCQ13c2kHf85pLP8CxG5A34jsAvpxMEtgLGBWSRJKsoLwLWks/ovAO6NCFGWT+Cjgf8HbAWsD6wDTAbGR4aSJKlDzwP39G5/B/5MunHPvMhQUJ4CMJhVSYsLjQfG9f53+dBEkiQt2bOkpfJn9/73cdIl8pIkSZIkSZIkSZIkSZIkSZIkSZIkSZIkSZIkSZIkSZIkSZIkSZIkSZIkSZIkSZIkSZIkSZIkSZIkSZIkSZIkSZIkSZIkSZIkqU3/B/XhJ9Mwop6xAAAAAElFTkSuQmCC;" vertex="1" parent="1">
          <mxGeometry x="70" y="190" width="32" height="32" as="geometry" />
        </mxCell>
        <mxCell id="WdoEh3YIsQ9yu6LuEiXz-19" value="" style="shape=image;verticalLabelPosition=bottom;labelBackgroundColor=#ffffff;verticalAlign=top;aspect=fixed;imageAspect=0;image=data:image/png,iVBORw0KGgoAAAANSUhEUgAAAgAAAAIACAYAAAD0eNT6AAAABHNCSVQICAgIfAhkiAAAAAlwSFlzAAAOxAAADsQBlSsOGwAAABl0RVh0U29mdHdhcmUAd3d3Lmlua3NjYXBlLm9yZ5vuPBoAACAASURBVHic7d15mB1lnfbxb3cSErIRlE0QlUXCKiKoLwIqQUVQAYGRkVVlfF3YVQQVGBxUBDdWd0FAEB3WAUVEQJQBQXY0yCKELaxCCAnZ0/PH0w1Nk+6c06eqfrV8P9dVF6TTfZ77nCt96j71VD0FkiRJkiRJkiRJkiRJkiRJkiRJkiRJkiRJkiRJkiRJkiRJkiRJkiRJkiRJkiRJkiRJkiRJkiRJkiRJkiRJkiRJkiRJkiRJkiSVV1d0gCF0Aa8FVgLGA+N6t+UjQ6nWeoAZwFPAVODJ2DiSlJ+yFIAxwObAVsD6wDrAZGBsZCg13jTgAuAM4I7YKJKUrcgCsB6wCzCFtPMfE5hFGkoPcCnwBeCe4CySVEkrAPsDN5DeVN3cqrTNAT6HJKllk4HTgXnEv4m7uXW6nQ6MRJI0qI2BXwGLiH/TdnPLcjud8pxDI0ltG5HT464AnAT8CNgQ3yhVP28GZgPXRQeRpOHIesfcDewLHAu8OuPHlspmPvB24LboIJLUriwLwGuBc0iX8klNcSPpKpbF0UEkqR1ZTQG8B/gd6Rp+qUlWAx4HbooOIknt6PQIwAjg68AXM3gsqaqeBdbFlQMlVUgnRwCWAc4GPoU7fzXbssDKwEXRQSSpVcPdcY8Hzgfel2EWqcp6SFNhV0UHkaRWDKcAvBq4Atgk4yxS1U0l/V7Mjw4iSUvT7hTAWOAy4G05ZJGqbkXgBeDa6CCStDTtHAEYBVwMbJdTFqkOXiAtfvVAdBBJGkp3i9/XRVr61J2/NLSxwAnRISRpaVqdAjgEODTPIFKNTAZuBe6ODiJJg2llCuCtpDnNZXLOItXJQ6SFsWZHB5GkJVnaEYBJwB9IN/eR1LrlSFNsV0YHkaQlWdoRgDOBvYoIItXQAlwcSOrEPNJRtBnALOBR4C7S9NqzgblqYagC8C7g6qV8jyRJEZ4CbgeuIS3AdSOwMDRRxQy2cx9FusWpN/eRJFXBLOCPwC+BC4E5oWkqYLACcChwfJFBJEnKyEzgPODnwJ9jo5TXkgrAeGAaaclfSZKq7FbgWFIh6AnOUipLWgjos7jzlyTVwybAr4FbgJ2Cs5TKwCMAY4D7gdcEZJEkKW9XA/uRriZotIFHAPbFnb8kqb62Jh0N+CrpQ29jDTwCcBuwcUQQSZIKNhX4CPD36CAR+h8B2BB3/pKk5lgfuB7YPTpIhJH9/v9jUSGGMJe0wMPlpPmaZ3D1Jw3fdsAp0SEklcoE4GxgC+BAYFFsnOL0TQGMAB4BVgnM0t/9pPmZC0iLO0hZ6CKdAPSu6CCSSuki0tGARiwi1FcANgP+Ghmk1yzgK8APgfnBWVRP65POdRkVHURSKf0Z2IF0/4Fa6zsHYOvQFMk00iGYk3Dnr/xMBb4THUJSaW1FOlI4KTpI3voKwJTQFOkT2duAO4JzqBmOAR6MDiGptN4MXAwsGx0kT92kEwG3CMzwBLAj6c5OUhFeAA6KDiGp1N4J/IqXnyxfK93AeqSzICMsAnYGHgoaX811MfA/0SEkldqHgBOjQ+SlG1g3cPzTgOsCx1ezHQDMjg4hqdQ+C+wZHSIPkQVgDvBfQWNLkI48fS06hKTS+wGxH5Zz0Q2sEzT2WaS1B6RI3yFdGSBJgxkPnEvN7h3QDawZNPZFQeNK/S0gHeLzPuGShrIxcHh0iCx1A8sFjPs8aYlfqQyuIR2RkqShHAasHR0iK93EXAFwCzAvYFxpMIfifSYkDW0MNbqfSDdpbqNo9weMKQ3lSeDL0SEkld62wE7RIbIQdQTguYAxpaX5MXBjdAhJpXcUL91Lp7K6ibkpimv9q4wWA58EFkYHkVRqmwDbR4foVPfSv0VqlDtI1/xK0lCOjA7QKQuA9EpHAo9Fh5BUam8n3TmwsiwA0is9B3w+OoSk0ts7OkAnuohZAOV40vWUUpldAbwnOkSvR/DcGTXPssBKwIjoIIN4DngNaWn7SuoJ2I4r5JlJnVkHmEvM78jAzXsWqKmWATYDjgZuJf53ceC2W27PvAAWAGlw/0X8G0wPqYhMzvm5SlXwdtLqndG/k31bpZe1twBIg1sWuI/4N5ke4Mqcn6tUJTuTVu+M/r18DhiZ83PNjQVAGtq2xL/J9G275/xcpSpZm3Q3z+jfy7fn/UTz4FUA0tJdDpwXHaLXd4i5gZdURvcBWwJ3B+eYEjz+sFgApNYcQrqLZbRV8IRAqb9ngB2BGYEZtg4cuyNOAUit+Rzxhxp7SEsVb5rzc5WqZmfificfL+D55cICILVmJOW5DOkmyntttBTlSuJ+JycV8Pwy5RSA1LqFwH6kX/ZomwKfig4hlUzkLb0rd5muBUBqz3XAadEheh1LWoVMUnIDcHvQ2BYAqQEOA56ODgFMJC2rLeklFweNu3rQuMNmAZDa9y/Kcy+LPajwGchSDi4JGndC0LjDZgGQhud00nKk0bqAHwKjo4NIJXEnsChg3PEBY3bEAiANTw9wAOnEwGjr4O2LpT7ziJmimxgwZkcsANLw3QmcGB2i11eANaJDSCURsWiXRwCkhjkKeDA6BDAW+H50CKkkIqYAKrc/rVxgqWReoDyH398P7BQdQlI1WACkzp0PXBodotdJVPBQpKTiWQCkbOwPzI4OQboW+cjoEJLKzwIgZeNBynOPi88BG0eHkFRuFgApO8cB/4gOQbpp0SmkNQIkaYksAFJ25gOfphw3C9oS2Cc6hKTysgBI2boGODc6RK9vAytEh5BUThYAKXuHADOiQwCvBr4eHUJSOVkApOw9QVogqAz+A9g8OoSk8rEASPk4FbgxOgTpd/xHpBMDJelFFgApH4uB/YhZknSgjUhZJOlFFgApPzcBP44O0esYYLXoEJLKwwIg5etw4LHoEMAE4LvRISSVhwVAytdM4LDoEL0+AmwfHUJSOVgApPydBVwVHaLXicCY6BCS4lkApGJ8BpgXHQJYm/IckZAUyAIgFeMeyjMH/yVgcnQISbEsAFJxjgEeiA4BjAZOjg4hKZYFQCrOHMpzPf57SScFSmooC4BUrMuAi6ND9DoRWC46hKQYFgCpeAcAs6JDAKsAR0eHkBTDAiAV72Hga9Eheh0AbBIdQlLxLABSjO8Ad0SHAEaQbhbke4HUMP7SSzEWkk4I7IkOAryVdNtgSQ1iAZDiXAucGR2i17HAStEhJBXHAiDF+jzwdHQI4FXAcdEhJBXHAiDF+hdwRHSIXvsAW0eHkFQMC4AU7yfA9dEhgC7SCoGjooNIyp8FQIq3GPgU6cTAaBsAB0eHkJQ/C4BUDncCp0aH6HU08IbgDJJyZgGQyuNI4NHoEMBY4HvRISTlywIglcfzpKsCymAn4EPRISTlxwIglcuvgN9Gh+h1CjAuOoSkfIyMDiDpFQ4GpgBjgnO8DniMcpycKLVjYsCY2wL/BGYCs3u3J4C7gXv6/XduQLYlsgBI5XMvaVGe/4wOAkyIDiBVxBhgzaV8zyLgNuAPwP8CfyRN/YXoImYt8uOBwwLGlapiDOnKgLWjg0jKzVzSlN+ZwGXA/CIH9xwAqZzmAvtHh5CUqzHAzsBFpCuATgYmFzW4BUAqr8uB/44OIakQK5BK/1TgEmCzvAe0AEjldgiBc4SSCtcNfBC4EbgYWCfPgSSV16OU42RAScXqAnYA/gacCIzPegALgFR+J5POHJbUPKOAA4E7gPdn+cAWAKn8FgL/n3TTIEnNtAbpioETgWWyeEALgFQNfwV+Fh1CUqgu0tGAa0mFoCMWAKk6Dgeeig4hKdxbgZuALTp5EAuAVB3P4AJakpJXAVcCuwz3ASwAUrX8nLR8qCSNJt1A7JPD+WELgFQtPcABwILoIJJKYQTwI2Dfdn/QAiBVz9+AE6JDSCqNLlIJaGs6wAIgVdPRwLTgDJLKYwTwC2CrVn/AAiBV0wvA56JDSCqVMaTlg1u6RNACIFXXhaSbhkhSn+WBX5NOEBySBUCqtv2B2dEhJJXKZsBxS/smC4BUbQ8B34gOIal0DgR2HOobLABS9X0buCs6hKRS6QJ+ACw32DdYAKTqmw98mrRGgCT1eQ1w5GB/aQGQ6uFPwFnRISSVzkHARkv6CwuAVB8Hkc4JkKQ+I4HvLekvLABSfcwAdgVmRQeRVCrbAJsP/KIFQKqXv5LO/H0+OoikUjli4BcsAFL9XAVsCdwfHURSaWwHbNL/CxYAqZ7uAN5EumnQ/OAskuJ1AQf3/4IFQKqv2cAhwNqktQIeiY0jKdjOwLi+P3QRc+3w8cBhAeNKTdYFbAxsSioFy/d+TVLnRgITgBWB9YCVY+MMam/6XTLcE7AtdY1iSZIq7M3AfwJTidnPDrb9vn9IC4AkSfnoBvYBHiR+598DLARe3RdMkiTlYzFwBjAZOC04C8AI4N1gAZAkqQhzgX1JJ+YuCs4yBSwAkiQV6QQGXI4XYGuwAEiSVLRTgB8Hjr8esJIFQJKk4h0A3Bs4/voWAEmSijcf+HLg+JMtAJIkxTgfuClo7HUtAJIkxegBzg4aex0LgCRJcS4KGndlC4AkSXGmAf8IGHeCBUCSpFhTA8a0AEiSFOyJgDEtAJIkBZsVMOY4C4AkSbF6AsbssgBIktRAFgBJkhrIAiBJUgNZACRJaiALgCRJDWQBkCSpgSwAkiQ1kAVAkqQGsgBIktRAFgBJkhrIAiBJUgNZACRJaiALgCRJDWQBkCSpgSwAkiQ1kAVAkqQGsgBIktRAFgBJkhrIAiBJUgNZACRJaiALgCRJDWQBkCSpgSwAkiQ1kAVAkqQGsgBIktRAFgBJkhrIAiBJUgNZACRJaiALgCRJDWQBkCSpgSwAkiQ1kAVAkqQGsgBIktRAFgBJkhrIAiBJUgNZACRJaiALgCRJDWQBkCSpgSwAkiQ1kAVAkqQGsgBIktRAFgBJkhrIAiBJUgNZACRJaiALgCRJDWQBkCSpgSwAkiQ1kAVAkqQGsgBIktRAFgBJkhrIAiBJUgNZACRJaqCR0QEkKVg38EZgQ2AFYBLwDDAduBN4KC6alB8LgKQm6gbeDXwU+CCwyhDfez9wPvDD3v+XaqMnYDuukGcmSS+3AXAs6VN9u+9bC4EzgJULT626O46YfbEFQFKtrQIcDNxMNu9fzwI7FPoMVHchBcCTACXV0Vhgd+A3wMPA94C3ZPTYk4CLgM9n9HhSCM8BkFQXffP6ewG7ABNyHKsL+DawADgpx3Gk3FgAJFXdesBuwN7AGgWP/V3gLuCKgseVOmYBkFRFrwJ2Je30twjMMQL4GamEzA7MIbXNcwAkVUX/ef0ngB8Ru/PvszpwaHQIqV0WAEll1g1sSdrZPwacDWxP+Y5eHgCMiw4htaNsv0SSBOl6/T2BPUifsMvuVcCOwDnRQaRWWQAklcXKpJX59iK7S/aKZAFQpVgAJEUaA7yXtNPfCRgVG6cjm0cHkNphAZBUtP7X6+8MTAxNk53VSc9lZnQQqRUWAElF6btefy9gzeAseVkBC4AqwgIgKU9Vn9dv1/joAFKrLACSslanef12dUUHkFplAZCUhW7gHaSd/r9Tn3l9qbYsAJI60YR5famWLACS2lWWdfgldcACIKkVTZ7Xl2rJAiBpMM7rSzVmAZA0kPP6UgNYACSB8/pS41gApOZyXl9qMAuA1CzO60sCLABSUzivL+llLABSfTmvL2lQFgCpXpzXl9QSC4BUfc7rS2qbBUCqLuf1JQ2bBUCqFuf1JWXCAiCVn/P6kjJnAZDKyXl9SbmyAEjl4ry+pEJYAKR4zutLKpwFQIqxLGk+f0/gffi7mKXbgGmk11fSILqjA0gN0g1sCfwIeBw4B9ged/5ZmA6cBGwKbAKcFxtHKj/feKT8Oa+fjznApcBZwGXAwtg4UrVYAKR8OK+fj8XA9cCZpCMos2LjSNVlAZCyMxrYGef183Ab6ZP+L4HHgrNIteAblNS5icCBwP7AysFZ6uRR4GzSjv9vwVmk2rEASJ15P+mkvtdFB6kJ5/WlglgApOE7DDgW6IoOUnHO60sBLADS8HwPODg6RMU5ry8FsgBI7fss7vyHazrpGv0zgFuCs0iNZgGQ2vMm4IToEBXzPHAh6dP+VaRD/pKCWQCk1nWRVpvzdrxL57y+VHIWAKl17wfeFR2i5JzXlyrCAiC17lPRAUrKeX2pgiwAUmsmAh+IDlEis4ALcF5fqiwLgNSazfH3xXl9qUaa/oYmtWqz6ACBnNeXasgCILVmlegABXNeX6o5C4DUmldFByiA8/pSg1gApNbU9XfFeX2poer6piZpaFNJO/0zcV5faiQLgNQczutLepEFQKq3OcClpHn9y4CFsXEklYUFQKof5/UlLZUFQKoP5/UltcwCIFWb8/qShsUCIFWP8/qSOmYBkKrBeX1JmbIASOXmvL6kXFgApPKaBmwQHUJSPXVHB5AkScWzAEiS1EAWAEmSGsgCIElSA1kAJElqIAuAJEkNZAGQJKmBLACSJDWQBUCSpAayAEiS1EAWAEmSGsgCIElSA1kAJElqIAuAJEkNZAGQJKmBLACSJDWQBUCSpAayAEiS1EAWAEmSGsgCIElSA1kAJElqIAuAJEkNZAGQJKmBLACSJDWQBUCSpAayAEiS1EAWAEmSGsgCIElSA1kAJElqIAuAJEkNZAGQJKmBLACSJDWQBUCSpAYaGR1AUiMtA6wPrANMBtYD1gAmAuN6/zsRWATMBp4H5gAPAw/0bvcBNwIPFpxdqgULgKQijAQ2BbYGpgBbAGNb+LkRpLKwfO+fJy/hex4HbgCuAv4HmNZhVqkRLACS8rQpsDfwUWDFnMZYBdixdzsRuB14LKexpNqwAEjK2jjgk8B/ABsEjL9x7yZpCBYASVmZAHwCOJz0qVxSiVkAJHVqNHBo7zYxOIukFlkAJHVia+BU0ln8kirEAiBpOFYg7fg/Eh1E0vBYACS1623Ar4A3BOeQ1AFXApTUqi7gIOBa3PlLlecRAEmtGAOcA3w4OoikbFgAJC3NeOAC4L3RQSRlxwIgaSgrA5cBm0QHkZQtC4CkwbyatL7++tFBJGXPkwAlLclY4GLc+Uu1ZQGQNNAo4DzSHfsk1ZQFQNJA3wO2iw4hKV8WAEn97QrsFx1CUv4sAJL6rAX8NDqEpGJ4FYDqahTpErZxpOvYJ5HuWjcfmA3MBf4FTAcWBmUsk5HAucBy0UEkFcMCoDpYnXRXug2BycC6wJq09u97IfAw8ABwF3AD8Bfg3lySltcBwGbRISQVxwKgKhoLfBB4D2nHv3YHjzUSWKN3m8JL899PA5eTLoX7XQePXwWrAl+NDiGpWBYAVUU38E5gH2AXYELO460A7NG7zSNNGdTVd8n/9ZRUMhYAld2ywL7A54m7A93o3q2O3gHsFh1CUvEsACqr8aQd/xdJh6iVjyOiA0iKYQFQ2XQBewPHAysFZ6m7TYD3R4eQFMMCoDKZDJxCOrlP+fsKqXBJaiAXAlIZjACOBu7EnX9RVgc+HB1CUhyPACjaSsBZwPuigzTMXvgBQGo0C4AivQc4G+f6I+wZHWAQM4BbgGm9/z+KtIrjOsBbev8sKQMWAEXZh7TuvP8Gi/dWYL3oEP3MAs4ELgL+CCwY5PsmAduTbli0Ix7BkDriL5AifAE4HXf+UXaNDtBrAfB90kqO+wFXMPjOH9IRgXOAnYFNgd/nHVCqMwuAinYc8C08+zzSlOgAwCPA5qQd/xPD+PnbgG2Bj5NWapTUJguAinQUaWEfxZlEuv4/0g3A24CbM3isn5MKzXBKhNRoFgAV5VN4w5kyeBfpsssod5MWH3osw8e8DtgOeCHDx5RqzwKgIuwCnBodQgBsGTj2s8AOpLn8rN1KWjq6J4fHlmrJAqC8rQ+cQeynTr0k8uz/LwD35Pj455JOEpTUAguA8jSG9IY8LjqIXrRu0Lh3kS71y9sReFKg1BILgPJ0KrBxdAi9aDRxt1Q+AlhYwDjTgB8XMI5UeRYA5WVn4BPRIfQyaxEzFTMT+E2B451b4FhSZVkAlIexwHejQ+gVVgwa97cUe1j+L8DjBY4nVZIFQHn4KvD66BB6hfFB415R8HiLgSsLHlOqHAuAsrYhcFB0CC3RhKBx/9GQMaVKsQAoa8fgHdvKKqoAPBkw5lMBY0qVYgFQljYg3aVN5bRM0LjzA8acGzAmwKKgcaW2WQCUpS/jTX7KbHbQuBHnHkQd7Xg+aFypbRYAZWUtYLfoEBpS1M4p4oTQ1wWMCRYAVYgFQFnZF5f7LbtZQeNG3H3wLQFjggVAFWIBUBa6gT2iQ2ipZgaNu0PB400C3lnwmJDOO1gQMK40LCOjA6gW3k3cIdeh3A9cCtwJPEx6c+4GViOdsLgd6bLFpngoaNy3AqsC0wsabztirkSJen2lYbEAKAt7RwfoZz7wQ+BnwB1L+d4vks5d2Bv4HHEL5RRlOukQddEnyHUDnwGOLGi8zxY0zkCuPaDK6QnYjivkmakIXaTrvCP+HQ3cfg2sOcznsTLwfdIqctHPo297YJjPZSg3BT2XWcBrcng+A+0Y9Px6gOMLeH6qp+MI+DfrOQDq1IbErTHfZyFwAPAR0mH/4XiC9Mnx34i7XK4IdweNOw44NucxxhL74SLqtZWGxQKgTk0JHn8usD1wSkaPdz6wJfVdSe62wLH3AT6d02N3AacDk3N6/FbcHji21DYLgDq1deDYPaTLD7O+2cxtwK7ErGCXtz8Gj38SsE0Oj3sU6QhQlGeBWwPHl9pmAVCn3h449vHAOTk99p+AA3N67Ei3ADMCxx8F/Ab4WIaP933g6Iweb7iuwWWAVTEWAHViOWCVoLEfIv83/R+T7i1fJ4tI5SbSaNLh+hOBiR08zlrA70lXGES7KjqA1C4LgDoROd96JPnf8KWHdKlg3fw+OkCvA4H7SCdwjm7j51YilYeppDUoyqAsr6nUlojLZbwMsB72Iubfz4MUW16vyel5LG17IKfnsyLp/IaI5zTY9hxwLvBR0qWc/ZeVHg1sRCoMfyAt6BSdt/92U6svvDSIkMsAXQhInVg7aNyLSdfrF+VCYpaWzctTwGUUv0TvUCaSbibV/4ZSM0iLlZV9gaazogNIw+EUgDoxKWjcCwse76KCxytCFXZakyj/zn8h6ciFVDkWAHUi4s15MXB9wWNOAx4teMy8XUJ91zoo0m9Ji0hJlWMBUCciCsCj5H/y35L8M2DMPM0jnUinzng+kyrLAqBOFH1TGYi7hv3ZoHHzdDKxawJU3VXAddEhpOGyAEjlNS/nx58JnJrzGHX29egAUicsAOrE8wFjRp14uHzAmLMKGOME6nl0I2/X4OI/qjgLgDpRxA5qoNWAZQPGfWPAmDMLGONp4IgCxqmThcBB0SGkTlkA1ImIAtANvKPgMdeimHvZD1TUEZYfAjcUNFYdnIB3/lMNWADUiahDxzsVPF7UgjlFnaC3mLQcb5GLK1XVI8BXo0NIWbAAqBNRl8btyMuXis3bhwscq78iX9+/4iVtS7OYdPvpiCNfUuYsAOrE3UHjrk66D0ER3glsVdBYA/2j4PGOAv5c8JhV8g286Y9qxAKgTkQVAICvAWNzHqML+GbOYwyl6Nd3IbA76cRAvdyf8NC/asYCoE48BzwWNPZqwNE5j/FpYPOcxxjMYuDegHEfAfYklQElj5LuUuhrolqxAKhTNwaOfSiwR06PvSXpbO8odwIvBI19OfAx0i1Dm+454APA9OggUtYsAOpU9GIoPwXel/Fjvpl0x8FlMn7cdkS/rmcDhwVniDYH+BBe8qeasgCoU9E7qjHAb4ADM3q8XYFrgRUyerzhin5dAb4FHB8dIsh80mF/T4pUrfUEbF5uVB9dpNuhRvw7GridR1q0ZzhWIS2Is7gEz2MBMHGYzyMPX6Icr0tR20zgvZm8clJrjiPm33rIoBaAejmN+Dftvm0ecBKwcYvZ3wgcQ1p1Lzp733Zli9mL9AlSMYl+bfLengA2zeg1k1oVUgBGFvLUVHdnAR+PDtFrGdKqdgcAD5CmB+4gnd0+DxgFrApsAGwHrB8Tc0i/iA6wBKcBT5KyLRecJS9TSYtM3RcdRCpKRMv2CEC9dJF2ttGf3uqwvUC5d7CvB64n/nXKejsTGJfh6yS1I+QIgCcBKgs9wDnRIWriQtKlZ2X1IGl1xL43rKqbAxwM7A3MDs4iFcoCoKz8DBdKycJPogO0YAFwOOnyy3uCs3TiMmAj4MToIFIEC4Cycj9wbnSIirse+GN0iDb8AdiQ9Am6SjfImQ7sA2xP3A2tpHAWAGXpWLylbCeOiQ4wDAtIn6A3Ii3KND82zpCeBo4A1iHN+UuNZgFQlqYCF0WHqKhbgd9Fh+jANOCTwOtI5wdELWO8JE+SbuSzFvB1nOuXXhRxxq1XAdTXeqTL7aLP6q7a9p7hvNglthJpauAWYl7PBaRLQP+dtFqkVGYuBKTa+CbxO9QqbXU/d2JD0r+J28l3RcG5pHMoDgZWLuKJSRmxAKg2xpEuF4vesVZhm0lamKgpVgQ+AvwA+CvpksfhvnaPA1cD3yAdQVm2wOchZcmVAFUbs4GDSNe0a2hH0axbzT4F/Lp367MqsC7wBmB5UoEcT1oQaTGpJMwkXWnwLOnSw7uBGUWFlurIAqC8XES6pv2T0UFK7Crg5OgQJTCdZpUgqRS8CkB5OhC4LTpEST0O7AEsig4iqZksAMrTXNJ878zoICWziLTzfzw6iKTmsgAob/eSVl3zk+5LDiEd/pekMBYAFeEi4DPRIUri6zjvL6kELAAqyk9IZ7w32VnAkdEhJAksACrWMTR3DYhfAp8gXX8rSeEsACra4aQ1App006CTgT3xdsmSSsQCoAgnAXuT1muvsx7STWgOpFmFR1IFWAAU5WxgW+p7KdxMYDfg6OAckrREFgBFuhp4E3B5dJCM3QpsCvx3dBBJGowFQNGeArYnXSFQ9SmBHuAU4B3AfcFZIhIeVgAABe1JREFUJGlIFgCVwWLSFQIbAlcEZxmu24EtgQNIKyBKUqlZAFQm95DOC9gbeCI4S6tmku4/vxlwXXAWSWqZBUBl00NaMGct0o710dg4g3qetKbBGsCJeImfpIqxAKisZpN2rGsD+wH3x8Z50ePAl4HXktY0eCY2jiQNjwVAZTcX+D7piMBmpDUE/hWQ4VLSnQ1fBxyLdziUVHEjowNIbbi5dzucdOXANsAUYHIOYz1IukzxD8AluMOXVDMWAFXRHOD83g1gNWBr0lUEk4F1SUcMRrXwWIuAacDdwF3AVOAa4J+ZJpakkrEAqA4eBX4x4GsjgZWA8cAEYDlgDDAfmAHM6t2e7P2aJDWKBUB1tRCYHh1CksrKkwAlSWogC4AkSQ1kAZAkqYEsAJIkNZAFQJKkBrIASJLUQBYASZIayAIgSVIDWQAkSWogC4AkSQ1kAZAkqYEsAJIkNZAFQJKkBuoGFgSMu0zAmJIklVHEPnF+N/B8wMDLBYwpSVIZTQoYc1Y3MCtg4DUDxpQkqYzWDhhzZtQRgLcAowPGlSSpTMYAbw4Yd1Y38FzAwBOAbQLGlSSpTLYBxgeMO6MbuD9gYICdgsaVJKksovaF93cDdwcNvhewetDYkiRFWw3YPWjsf0QWgDHA0UFjS5IU7WvA2KCx7wbYCOgJ2hYCW+b9LCVJKpmtSPvAqP3vBgAjgZmBIZ7CywIlSc3xeuAJ4va7M4FRfWF+GxikB7gNWGn4r6UkSZWwMnA7sfvcS+ClewFcnd9zbcnGwM3ApsE5JEnKy5uAv/T+N9JV/f+wKbFtpG+bBRyCiwRJkupjNPB50j4uej/bQ/rQ/aIRwPQShOrb7gc+Bkxs6yWWJKk8JgIfBx4gfr/atz1M79H/rn5BvwV8Ietn36F5pOmJy4G7gKeBGaQnIUlSWXSRbuqzArA+sC2wNeW7++1xwOHw8gKwAfC3kDiSJKkIG9G7r+/u98W/k87GlyRJ9XML/T7odw/4y58Um0WSJBXkp/3/0DXgL8cA/wRWLSyOJEnK2+OkRffm9H1h4BGAucAJRSaSJEm5+xb9dv7wyiMAAOOAaaQzGSVJUrX9C3gDaR2CF41YwjcuABaRLmGQJEnV9mXgzwO/uKQjAJBuEHQTA1YLkiRJlXInabXfBQP/YuA5AH0WAvvjgjuSJFVVD2lf/oqdPwxeAACuBc7II5EkScrdacCfBvvLwaYA+kwgTQWsk2UiSZKUq/uAzYDnBvuGoY4AADwP7E5ak1+SJJXfPGA3htj5w5KvAhjoMWAmsF0GoSRJUr4OBC5Z2je1UgAAbiCtIORVAZIkldfpwJGtfOPSzgHobwRwHrDTcBJJkqRc/Ya0j17Yyje3UwAAlgWuALZo8+ckSVJ+bgC2AWa3+gNLOwlwoDnAjqRbCkqSpHg3A9vTxs4f2i8AkNYUfhdw+TB+VpIkZecqYArwTLs/OJwCAOmGAjsA5w7z5yVJUmcuAD5AulKvba1eBbAki4ALSfcN2JL2zyeQJEntWwwcA+zHIMv8tiKrnfYU4GxglYweT5IkvdJTwN7A7zp9oCw/ta9KKgHvzvAxJUlSchWwJ2mBvo4N9xyAJZlOOhKwD/Bkho8rSVKTPQMcDLyXjHb+0Nk5AIO5HfgZac2Azci2ZEiS1BSLgV8AHwKuJt3eNzN5FACAuaT5ifNJdxTcAIuAJEmtWExa1e+jwA+AF/IYpKgz998IfAnYA1imoDElSaqS+cBZwDdJt/PNVdGX7k0irR+wF2nJQi8dlCQ13c2kHf85pLP8CxG5A34jsAvpxMEtgLGBWSRJKsoLwLWks/ovAO6NCFGWT+Cjgf8HbAWsD6wDTAbGR4aSJKlDzwP39G5/B/5MunHPvMhQUJ4CMJhVSYsLjQfG9f53+dBEkiQt2bOkpfJn9/73cdIl8pIkSZIkSZIkSZIkSZIkSZIkSZIkSZIkSZIkSZIkSZIkSZIkSZIkSZIkSZIkSZIkSZIkSZIkSZIkSZIkSZIkSZIkSZIkSZIkqU3/B/XhJ9Mwop6xAAAAAElFTkSuQmCC;" vertex="1" parent="1">
          <mxGeometry x="109" y="190" width="32" height="32" as="geometry" />
        </mxCell>
        <mxCell id="WdoEh3YIsQ9yu6LuEiXz-25" value="" style="shape=image;verticalLabelPosition=bottom;labelBackgroundColor=#ffffff;verticalAlign=top;aspect=fixed;imageAspect=0;image=data:image/png,iVBORw0KGgoAAAANSUhEUgAAAgAAAAIACAYAAAD0eNT6AAAABHNCSVQICAgIfAhkiAAAAAlwSFlzAAAOxAAADsQBlSsOGwAAABl0RVh0U29mdHdhcmUAd3d3Lmlua3NjYXBlLm9yZ5vuPBoAACAASURBVHic7d15mB1lnfbxb3cSErIRlE0QlUXCKiKoLwIqQUVQAYGRkVVlfF3YVQQVGBxUBDdWd0FAEB3WAUVEQJQBQXY0yCKELaxCCAnZ0/PH0w1Nk+6c06eqfrV8P9dVF6TTfZ77nCt96j71VD0FkiRJkiRJkiRJkiRJkiRJkiRJkiRJkiRJkiRJkiRJkiRJkiRJkiRJkiRJkiRJkiRJkiRJkiRJkiRJkiRJkiRJkiRJkiRJkiSVV1d0gCF0Aa8FVgLGA+N6t+UjQ6nWeoAZwFPAVODJ2DiSlJ+yFIAxwObAVsD6wDrAZGBsZCg13jTgAuAM4I7YKJKUrcgCsB6wCzCFtPMfE5hFGkoPcCnwBeCe4CySVEkrAPsDN5DeVN3cqrTNAT6HJKllk4HTgXnEv4m7uXW6nQ6MRJI0qI2BXwGLiH/TdnPLcjud8pxDI0ltG5HT464AnAT8CNgQ3yhVP28GZgPXRQeRpOHIesfcDewLHAu8OuPHlspmPvB24LboIJLUriwLwGuBc0iX8klNcSPpKpbF0UEkqR1ZTQG8B/gd6Rp+qUlWAx4HbooOIknt6PQIwAjg68AXM3gsqaqeBdbFlQMlVUgnRwCWAc4GPoU7fzXbssDKwEXRQSSpVcPdcY8Hzgfel2EWqcp6SFNhV0UHkaRWDKcAvBq4Atgk4yxS1U0l/V7Mjw4iSUvT7hTAWOAy4G05ZJGqbkXgBeDa6CCStDTtHAEYBVwMbJdTFqkOXiAtfvVAdBBJGkp3i9/XRVr61J2/NLSxwAnRISRpaVqdAjgEODTPIFKNTAZuBe6ODiJJg2llCuCtpDnNZXLOItXJQ6SFsWZHB5GkJVnaEYBJwB9IN/eR1LrlSFNsV0YHkaQlWdoRgDOBvYoIItXQAlwcSOrEPNJRtBnALOBR4C7S9NqzgblqYagC8C7g6qV8jyRJEZ4CbgeuIS3AdSOwMDRRxQy2cx9FusWpN/eRJFXBLOCPwC+BC4E5oWkqYLACcChwfJFBJEnKyEzgPODnwJ9jo5TXkgrAeGAaaclfSZKq7FbgWFIh6AnOUipLWgjos7jzlyTVwybAr4FbgJ2Cs5TKwCMAY4D7gdcEZJEkKW9XA/uRriZotIFHAPbFnb8kqb62Jh0N+CrpQ29jDTwCcBuwcUQQSZIKNhX4CPD36CAR+h8B2BB3/pKk5lgfuB7YPTpIhJH9/v9jUSGGMJe0wMPlpPmaZ3D1Jw3fdsAp0SEklcoE4GxgC+BAYFFsnOL0TQGMAB4BVgnM0t/9pPmZC0iLO0hZ6CKdAPSu6CCSSuki0tGARiwi1FcANgP+Ghmk1yzgK8APgfnBWVRP65POdRkVHURSKf0Z2IF0/4Fa6zsHYOvQFMk00iGYk3Dnr/xMBb4THUJSaW1FOlI4KTpI3voKwJTQFOkT2duAO4JzqBmOAR6MDiGptN4MXAwsGx0kT92kEwG3CMzwBLAj6c5OUhFeAA6KDiGp1N4J/IqXnyxfK93AeqSzICMsAnYGHgoaX811MfA/0SEkldqHgBOjQ+SlG1g3cPzTgOsCx1ezHQDMjg4hqdQ+C+wZHSIPkQVgDvBfQWNLkI48fS06hKTS+wGxH5Zz0Q2sEzT2WaS1B6RI3yFdGSBJgxkPnEvN7h3QDawZNPZFQeNK/S0gHeLzPuGShrIxcHh0iCx1A8sFjPs8aYlfqQyuIR2RkqShHAasHR0iK93EXAFwCzAvYFxpMIfifSYkDW0MNbqfSDdpbqNo9weMKQ3lSeDL0SEkld62wE7RIbIQdQTguYAxpaX5MXBjdAhJpXcUL91Lp7K6ibkpimv9q4wWA58EFkYHkVRqmwDbR4foVPfSv0VqlDtI1/xK0lCOjA7QKQuA9EpHAo9Fh5BUam8n3TmwsiwA0is9B3w+OoSk0ts7OkAnuohZAOV40vWUUpldAbwnOkSvR/DcGTXPssBKwIjoIIN4DngNaWn7SuoJ2I4r5JlJnVkHmEvM78jAzXsWqKmWATYDjgZuJf53ceC2W27PvAAWAGlw/0X8G0wPqYhMzvm5SlXwdtLqndG/k31bpZe1twBIg1sWuI/4N5ke4Mqcn6tUJTuTVu+M/r18DhiZ83PNjQVAGtq2xL/J9G275/xcpSpZm3Q3z+jfy7fn/UTz4FUA0tJdDpwXHaLXd4i5gZdURvcBWwJ3B+eYEjz+sFgApNYcQrqLZbRV8IRAqb9ngB2BGYEZtg4cuyNOAUit+Rzxhxp7SEsVb5rzc5WqZmfificfL+D55cICILVmJOW5DOkmyntttBTlSuJ+JycV8Pwy5RSA1LqFwH6kX/ZomwKfig4hlUzkLb0rd5muBUBqz3XAadEheh1LWoVMUnIDcHvQ2BYAqQEOA56ODgFMJC2rLeklFweNu3rQuMNmAZDa9y/Kcy+LPajwGchSDi4JGndC0LjDZgGQhud00nKk0bqAHwKjo4NIJXEnsChg3PEBY3bEAiANTw9wAOnEwGjr4O2LpT7ziJmimxgwZkcsANLw3QmcGB2i11eANaJDSCURsWiXRwCkhjkKeDA6BDAW+H50CKkkIqYAKrc/rVxgqWReoDyH398P7BQdQlI1WACkzp0PXBodotdJVPBQpKTiWQCkbOwPzI4OQboW+cjoEJLKzwIgZeNBynOPi88BG0eHkFRuFgApO8cB/4gOQbpp0SmkNQIkaYksAFJ25gOfphw3C9oS2Cc6hKTysgBI2boGODc6RK9vAytEh5BUThYAKXuHADOiQwCvBr4eHUJSOVkApOw9QVogqAz+A9g8OoSk8rEASPk4FbgxOgTpd/xHpBMDJelFFgApH4uB/YhZknSgjUhZJOlFFgApPzcBP44O0esYYLXoEJLKwwIg5etw4LHoEMAE4LvRISSVhwVAytdM4LDoEL0+AmwfHUJSOVgApPydBVwVHaLXicCY6BCS4lkApGJ8BpgXHQJYm/IckZAUyAIgFeMeyjMH/yVgcnQISbEsAFJxjgEeiA4BjAZOjg4hKZYFQCrOHMpzPf57SScFSmooC4BUrMuAi6ND9DoRWC46hKQYFgCpeAcAs6JDAKsAR0eHkBTDAiAV72Hga9Eheh0AbBIdQlLxLABSjO8Ad0SHAEaQbhbke4HUMP7SSzEWkk4I7IkOAryVdNtgSQ1iAZDiXAucGR2i17HAStEhJBXHAiDF+jzwdHQI4FXAcdEhJBXHAiDF+hdwRHSIXvsAW0eHkFQMC4AU7yfA9dEhgC7SCoGjooNIyp8FQIq3GPgU6cTAaBsAB0eHkJQ/C4BUDncCp0aH6HU08IbgDJJyZgGQyuNI4NHoEMBY4HvRISTlywIglcfzpKsCymAn4EPRISTlxwIglcuvgN9Gh+h1CjAuOoSkfIyMDiDpFQ4GpgBjgnO8DniMcpycKLVjYsCY2wL/BGYCs3u3J4C7gXv6/XduQLYlsgBI5XMvaVGe/4wOAkyIDiBVxBhgzaV8zyLgNuAPwP8CfyRN/YXoImYt8uOBwwLGlapiDOnKgLWjg0jKzVzSlN+ZwGXA/CIH9xwAqZzmAvtHh5CUqzHAzsBFpCuATgYmFzW4BUAqr8uB/44OIakQK5BK/1TgEmCzvAe0AEjldgiBc4SSCtcNfBC4EbgYWCfPgSSV16OU42RAScXqAnYA/gacCIzPegALgFR+J5POHJbUPKOAA4E7gPdn+cAWAKn8FgL/n3TTIEnNtAbpioETgWWyeEALgFQNfwV+Fh1CUqgu0tGAa0mFoCMWAKk6Dgeeig4hKdxbgZuALTp5EAuAVB3P4AJakpJXAVcCuwz3ASwAUrX8nLR8qCSNJt1A7JPD+WELgFQtPcABwILoIJJKYQTwI2Dfdn/QAiBVz9+AE6JDSCqNLlIJaGs6wAIgVdPRwLTgDJLKYwTwC2CrVn/AAiBV0wvA56JDSCqVMaTlg1u6RNACIFXXhaSbhkhSn+WBX5NOEBySBUCqtv2B2dEhJJXKZsBxS/smC4BUbQ8B34gOIal0DgR2HOobLABS9X0buCs6hKRS6QJ+ACw32DdYAKTqmw98mrRGgCT1eQ1w5GB/aQGQ6uFPwFnRISSVzkHARkv6CwuAVB8Hkc4JkKQ+I4HvLekvLABSfcwAdgVmRQeRVCrbAJsP/KIFQKqXv5LO/H0+OoikUjli4BcsAFL9XAVsCdwfHURSaWwHbNL/CxYAqZ7uAN5EumnQ/OAskuJ1AQf3/4IFQKqv2cAhwNqktQIeiY0jKdjOwLi+P3QRc+3w8cBhAeNKTdYFbAxsSioFy/d+TVLnRgITgBWB9YCVY+MMam/6XTLcE7AtdY1iSZIq7M3AfwJTidnPDrb9vn9IC4AkSfnoBvYBHiR+598DLARe3RdMkiTlYzFwBjAZOC04C8AI4N1gAZAkqQhzgX1JJ+YuCs4yBSwAkiQV6QQGXI4XYGuwAEiSVLRTgB8Hjr8esJIFQJKk4h0A3Bs4/voWAEmSijcf+HLg+JMtAJIkxTgfuClo7HUtAJIkxegBzg4aex0LgCRJcS4KGndlC4AkSXGmAf8IGHeCBUCSpFhTA8a0AEiSFOyJgDEtAJIkBZsVMOY4C4AkSbF6AsbssgBIktRAFgBJkhrIAiBJUgNZACRJaiALgCRJDWQBkCSpgSwAkiQ1kAVAkqQGsgBIktRAFgBJkhrIAiBJUgNZACRJaiALgCRJDWQBkCSpgSwAkiQ1kAVAkqQGsgBIktRAFgBJkhrIAiBJUgNZACRJaiALgCRJDWQBkCSpgSwAkiQ1kAVAkqQGsgBIktRAFgBJkhrIAiBJUgNZACRJaiALgCRJDWQBkCSpgSwAkiQ1kAVAkqQGsgBIktRAFgBJkhrIAiBJUgNZACRJaiALgCRJDWQBkCSpgSwAkiQ1kAVAkqQGsgBIktRAFgBJkhrIAiBJUgNZACRJaiALgCRJDWQBkCSpgSwAkiQ1kAVAkqQGsgBIktRAFgBJkhrIAiBJUgNZACRJaqCR0QEkKVg38EZgQ2AFYBLwDDAduBN4KC6alB8LgKQm6gbeDXwU+CCwyhDfez9wPvDD3v+XaqMnYDuukGcmSS+3AXAs6VN9u+9bC4EzgJULT626O46YfbEFQFKtrQIcDNxMNu9fzwI7FPoMVHchBcCTACXV0Vhgd+A3wMPA94C3ZPTYk4CLgM9n9HhSCM8BkFQXffP6ewG7ABNyHKsL+DawADgpx3Gk3FgAJFXdesBuwN7AGgWP/V3gLuCKgseVOmYBkFRFrwJ2Je30twjMMQL4GamEzA7MIbXNcwAkVUX/ef0ngB8Ru/PvszpwaHQIqV0WAEll1g1sSdrZPwacDWxP+Y5eHgCMiw4htaNsv0SSBOl6/T2BPUifsMvuVcCOwDnRQaRWWQAklcXKpJX59iK7S/aKZAFQpVgAJEUaA7yXtNPfCRgVG6cjm0cHkNphAZBUtP7X6+8MTAxNk53VSc9lZnQQqRUWAElF6btefy9gzeAseVkBC4AqwgIgKU9Vn9dv1/joAFKrLACSslanef12dUUHkFplAZCUhW7gHaSd/r9Tn3l9qbYsAJI60YR5famWLACS2lWWdfgldcACIKkVTZ7Xl2rJAiBpMM7rSzVmAZA0kPP6UgNYACSB8/pS41gApOZyXl9qMAuA1CzO60sCLABSUzivL+llLABSfTmvL2lQFgCpXpzXl9QSC4BUfc7rS2qbBUCqLuf1JQ2bBUCqFuf1JWXCAiCVn/P6kjJnAZDKyXl9SbmyAEjl4ry+pEJYAKR4zutLKpwFQIqxLGk+f0/gffi7mKXbgGmk11fSILqjA0gN0g1sCfwIeBw4B9ged/5ZmA6cBGwKbAKcFxtHKj/feKT8Oa+fjznApcBZwGXAwtg4UrVYAKR8OK+fj8XA9cCZpCMos2LjSNVlAZCyMxrYGef183Ab6ZP+L4HHgrNIteAblNS5icCBwP7AysFZ6uRR4GzSjv9vwVmk2rEASJ15P+mkvtdFB6kJ5/WlglgApOE7DDgW6IoOUnHO60sBLADS8HwPODg6RMU5ry8FsgBI7fss7vyHazrpGv0zgFuCs0iNZgGQ2vMm4IToEBXzPHAh6dP+VaRD/pKCWQCk1nWRVpvzdrxL57y+VHIWAKl17wfeFR2i5JzXlyrCAiC17lPRAUrKeX2pgiwAUmsmAh+IDlEis4ALcF5fqiwLgNSazfH3xXl9qUaa/oYmtWqz6ACBnNeXasgCILVmlegABXNeX6o5C4DUmldFByiA8/pSg1gApNbU9XfFeX2poer6piZpaFNJO/0zcV5faiQLgNQczutLepEFQKq3OcClpHn9y4CFsXEklYUFQKof5/UlLZUFQKoP5/UltcwCIFWb8/qShsUCIFWP8/qSOmYBkKrBeX1JmbIASOXmvL6kXFgApPKaBmwQHUJSPXVHB5AkScWzAEiS1EAWAEmSGsgCIElSA1kAJElqIAuAJEkNZAGQJKmBLACSJDWQBUCSpAayAEiS1EAWAEmSGsgCIElSA1kAJElqIAuAJEkNZAGQJKmBLACSJDWQBUCSpAayAEiS1EAWAEmSGsgCIElSA1kAJElqIAuAJEkNZAGQJKmBLACSJDWQBUCSpAayAEiS1EAWAEmSGsgCIElSA1kAJElqIAuAJEkNZAGQJKmBLACSJDWQBUCSpAYaGR1AUiMtA6wPrANMBtYD1gAmAuN6/zsRWATMBp4H5gAPAw/0bvcBNwIPFpxdqgULgKQijAQ2BbYGpgBbAGNb+LkRpLKwfO+fJy/hex4HbgCuAv4HmNZhVqkRLACS8rQpsDfwUWDFnMZYBdixdzsRuB14LKexpNqwAEjK2jjgk8B/ABsEjL9x7yZpCBYASVmZAHwCOJz0qVxSiVkAJHVqNHBo7zYxOIukFlkAJHVia+BU0ln8kirEAiBpOFYg7fg/Eh1E0vBYACS1623Ar4A3BOeQ1AFXApTUqi7gIOBa3PlLlecRAEmtGAOcA3w4OoikbFgAJC3NeOAC4L3RQSRlxwIgaSgrA5cBm0QHkZQtC4CkwbyatL7++tFBJGXPkwAlLclY4GLc+Uu1ZQGQNNAo4DzSHfsk1ZQFQNJA3wO2iw4hKV8WAEn97QrsFx1CUv4sAJL6rAX8NDqEpGJ4FYDqahTpErZxpOvYJ5HuWjcfmA3MBf4FTAcWBmUsk5HAucBy0UEkFcMCoDpYnXRXug2BycC6wJq09u97IfAw8ABwF3AD8Bfg3lySltcBwGbRISQVxwKgKhoLfBB4D2nHv3YHjzUSWKN3m8JL899PA5eTLoX7XQePXwWrAl+NDiGpWBYAVUU38E5gH2AXYELO460A7NG7zSNNGdTVd8n/9ZRUMhYAld2ywL7A54m7A93o3q2O3gHsFh1CUvEsACqr8aQd/xdJh6iVjyOiA0iKYQFQ2XQBewPHAysFZ6m7TYD3R4eQFMMCoDKZDJxCOrlP+fsKqXBJaiAXAlIZjACOBu7EnX9RVgc+HB1CUhyPACjaSsBZwPuigzTMXvgBQGo0C4AivQc4G+f6I+wZHWAQM4BbgGm9/z+KtIrjOsBbev8sKQMWAEXZh7TuvP8Gi/dWYL3oEP3MAs4ELgL+CCwY5PsmAduTbli0Ix7BkDriL5AifAE4HXf+UXaNDtBrAfB90kqO+wFXMPjOH9IRgXOAnYFNgd/nHVCqMwuAinYc8C08+zzSlOgAwCPA5qQd/xPD+PnbgG2Bj5NWapTUJguAinQUaWEfxZlEuv4/0g3A24CbM3isn5MKzXBKhNRoFgAV5VN4w5kyeBfpsssod5MWH3osw8e8DtgOeCHDx5RqzwKgIuwCnBodQgBsGTj2s8AOpLn8rN1KWjq6J4fHlmrJAqC8rQ+cQeynTr0k8uz/LwD35Pj455JOEpTUAguA8jSG9IY8LjqIXrRu0Lh3kS71y9sReFKg1BILgPJ0KrBxdAi9aDRxt1Q+AlhYwDjTgB8XMI5UeRYA5WVn4BPRIfQyaxEzFTMT+E2B451b4FhSZVkAlIexwHejQ+gVVgwa97cUe1j+L8DjBY4nVZIFQHn4KvD66BB6hfFB415R8HiLgSsLHlOqHAuAsrYhcFB0CC3RhKBx/9GQMaVKsQAoa8fgHdvKKqoAPBkw5lMBY0qVYgFQljYg3aVN5bRM0LjzA8acGzAmwKKgcaW2WQCUpS/jTX7KbHbQuBHnHkQd7Xg+aFypbRYAZWUtYLfoEBpS1M4p4oTQ1wWMCRYAVYgFQFnZF5f7LbtZQeNG3H3wLQFjggVAFWIBUBa6gT2iQ2ipZgaNu0PB400C3lnwmJDOO1gQMK40LCOjA6gW3k3cIdeh3A9cCtwJPEx6c+4GViOdsLgd6bLFpngoaNy3AqsC0wsabztirkSJen2lYbEAKAt7RwfoZz7wQ+BnwB1L+d4vks5d2Bv4HHEL5RRlOukQddEnyHUDnwGOLGi8zxY0zkCuPaDK6QnYjivkmakIXaTrvCP+HQ3cfg2sOcznsTLwfdIqctHPo297YJjPZSg3BT2XWcBrcng+A+0Y9Px6gOMLeH6qp+MI+DfrOQDq1IbErTHfZyFwAPAR0mH/4XiC9Mnx34i7XK4IdweNOw44NucxxhL74SLqtZWGxQKgTk0JHn8usD1wSkaPdz6wJfVdSe62wLH3AT6d02N3AacDk3N6/FbcHji21DYLgDq1deDYPaTLD7O+2cxtwK7ErGCXtz8Gj38SsE0Oj3sU6QhQlGeBWwPHl9pmAVCn3h449vHAOTk99p+AA3N67Ei3ADMCxx8F/Ab4WIaP933g6Iweb7iuwWWAVTEWAHViOWCVoLEfIv83/R+T7i1fJ4tI5SbSaNLh+hOBiR08zlrA70lXGES7KjqA1C4LgDoROd96JPnf8KWHdKlg3fw+OkCvA4H7SCdwjm7j51YilYeppDUoyqAsr6nUlojLZbwMsB72Iubfz4MUW16vyel5LG17IKfnsyLp/IaI5zTY9hxwLvBR0qWc/ZeVHg1sRCoMfyAt6BSdt/92U6svvDSIkMsAXQhInVg7aNyLSdfrF+VCYpaWzctTwGUUv0TvUCaSbibV/4ZSM0iLlZV9gaazogNIw+EUgDoxKWjcCwse76KCxytCFXZakyj/zn8h6ciFVDkWAHUi4s15MXB9wWNOAx4teMy8XUJ91zoo0m9Ji0hJlWMBUCciCsCj5H/y35L8M2DMPM0jnUinzng+kyrLAqBOFH1TGYi7hv3ZoHHzdDKxawJU3VXAddEhpOGyAEjlNS/nx58JnJrzGHX29egAUicsAOrE8wFjRp14uHzAmLMKGOME6nl0I2/X4OI/qjgLgDpRxA5qoNWAZQPGfWPAmDMLGONp4IgCxqmThcBB0SGkTlkA1ImIAtANvKPgMdeimHvZD1TUEZYfAjcUNFYdnIB3/lMNWADUiahDxzsVPF7UgjlFnaC3mLQcb5GLK1XVI8BXo0NIWbAAqBNRl8btyMuXis3bhwscq78iX9+/4iVtS7OYdPvpiCNfUuYsAOrE3UHjrk66D0ER3glsVdBYA/2j4PGOAv5c8JhV8g286Y9qxAKgTkQVAICvAWNzHqML+GbOYwyl6Nd3IbA76cRAvdyf8NC/asYCoE48BzwWNPZqwNE5j/FpYPOcxxjMYuDegHEfAfYklQElj5LuUuhrolqxAKhTNwaOfSiwR06PvSXpbO8odwIvBI19OfAx0i1Dm+454APA9OggUtYsAOpU9GIoPwXel/Fjvpl0x8FlMn7cdkS/rmcDhwVniDYH+BBe8qeasgCoU9E7qjHAb4ADM3q8XYFrgRUyerzhin5dAb4FHB8dIsh80mF/T4pUrfUEbF5uVB9dpNuhRvw7GridR1q0ZzhWIS2Is7gEz2MBMHGYzyMPX6Icr0tR20zgvZm8clJrjiPm33rIoBaAejmN+Dftvm0ecBKwcYvZ3wgcQ1p1Lzp733Zli9mL9AlSMYl+bfLengA2zeg1k1oVUgBGFvLUVHdnAR+PDtFrGdKqdgcAD5CmB+4gnd0+DxgFrApsAGwHrB8Tc0i/iA6wBKcBT5KyLRecJS9TSYtM3RcdRCpKRMv2CEC9dJF2ttGf3uqwvUC5d7CvB64n/nXKejsTGJfh6yS1I+QIgCcBKgs9wDnRIWriQtKlZ2X1IGl1xL43rKqbAxwM7A3MDs4iFcoCoKz8DBdKycJPogO0YAFwOOnyy3uCs3TiMmAj4MToIFIEC4Cycj9wbnSIirse+GN0iDb8AdiQ9Am6SjfImQ7sA2xP3A2tpHAWAGXpWLylbCeOiQ4wDAtIn6A3Ii3KND82zpCeBo4A1iHN+UuNZgFQlqYCF0WHqKhbgd9Fh+jANOCTwOtI5wdELWO8JE+SbuSzFvB1nOuXXhRxxq1XAdTXeqTL7aLP6q7a9p7hvNglthJpauAWYl7PBaRLQP+dtFqkVGYuBKTa+CbxO9QqbXU/d2JD0r+J28l3RcG5pHMoDgZWLuKJSRmxAKg2xpEuF4vesVZhm0lamKgpVgQ+AvwA+CvpksfhvnaPA1cD3yAdQVm2wOchZcmVAFUbs4GDSNe0a2hH0axbzT4F/Lp367MqsC7wBmB5UoEcT1oQaTGpJMwkXWnwLOnSw7uBGUWFlurIAqC8XES6pv2T0UFK7Crg5OgQJTCdZpUgqRS8CkB5OhC4LTpEST0O7AEsig4iqZksAMrTXNJ878zoICWziLTzfzw6iKTmsgAob/eSVl3zk+5LDiEd/pekMBYAFeEi4DPRIUri6zjvL6kELAAqyk9IZ7w32VnAkdEhJAksACrWMTR3DYhfAp8gXX8rSeEsACra4aQ1App006CTgT3xdsmSSsQCoAgnAXuT1muvsx7STWgOpFmFR1IFWAAU5WxgW+p7KdxMYDfg6OAckrREFgBFuhp4E3B5dJCM3QpsCvx3dBBJGowFQNGeArYnXSFQ9SmBHuAU4B3AfcFZIhIeVgAABe1JREFUJGlIFgCVwWLSFQIbAlcEZxmu24EtgQNIKyBKUqlZAFQm95DOC9gbeCI4S6tmku4/vxlwXXAWSWqZBUBl00NaMGct0o710dg4g3qetKbBGsCJeImfpIqxAKisZpN2rGsD+wH3x8Z50ePAl4HXktY0eCY2jiQNjwVAZTcX+D7piMBmpDUE/hWQ4VLSnQ1fBxyLdziUVHEjowNIbbi5dzucdOXANsAUYHIOYz1IukzxD8AluMOXVDMWAFXRHOD83g1gNWBr0lUEk4F1SUcMRrXwWIuAacDdwF3AVOAa4J+ZJpakkrEAqA4eBX4x4GsjgZWA8cAEYDlgDDAfmAHM6t2e7P2aJDWKBUB1tRCYHh1CksrKkwAlSWogC4AkSQ1kAZAkqYEsAJIkNZAFQJKkBrIASJLUQBYASZIayAIgSVIDWQAkSWogC4AkSQ1kAZAkqYEsAJIkNZAFQJKkBuoGFgSMu0zAmJIklVHEPnF+N/B8wMDLBYwpSVIZTQoYc1Y3MCtg4DUDxpQkqYzWDhhzZtQRgLcAowPGlSSpTMYAbw4Yd1Y38FzAwBOAbQLGlSSpTLYBxgeMO6MbuD9gYICdgsaVJKksovaF93cDdwcNvhewetDYkiRFWw3YPWjsf0QWgDHA0UFjS5IU7WvA2KCx7wbYCOgJ2hYCW+b9LCVJKpmtSPvAqP3vBgAjgZmBIZ7CywIlSc3xeuAJ4va7M4FRfWF+GxikB7gNWGn4r6UkSZWwMnA7sfvcS+ClewFcnd9zbcnGwM3ApsE5JEnKy5uAv/T+N9JV/f+wKbFtpG+bBRyCiwRJkupjNPB50j4uej/bQ/rQ/aIRwPQShOrb7gc+Bkxs6yWWJKk8JgIfBx4gfr/atz1M79H/rn5BvwV8Ietn36F5pOmJy4G7gKeBGaQnIUlSWXSRbuqzArA+sC2wNeW7++1xwOHw8gKwAfC3kDiSJKkIG9G7r+/u98W/k87GlyRJ9XML/T7odw/4y58Um0WSJBXkp/3/0DXgL8cA/wRWLSyOJEnK2+OkRffm9H1h4BGAucAJRSaSJEm5+xb9dv7wyiMAAOOAaaQzGSVJUrX9C3gDaR2CF41YwjcuABaRLmGQJEnV9mXgzwO/uKQjAJBuEHQTA1YLkiRJlXInabXfBQP/YuA5AH0WAvvjgjuSJFVVD2lf/oqdPwxeAACuBc7II5EkScrdacCfBvvLwaYA+kwgTQWsk2UiSZKUq/uAzYDnBvuGoY4AADwP7E5ak1+SJJXfPGA3htj5w5KvAhjoMWAmsF0GoSRJUr4OBC5Z2je1UgAAbiCtIORVAZIkldfpwJGtfOPSzgHobwRwHrDTcBJJkqRc/Ya0j17Yyje3UwAAlgWuALZo8+ckSVJ+bgC2AWa3+gNLOwlwoDnAjqRbCkqSpHg3A9vTxs4f2i8AkNYUfhdw+TB+VpIkZecqYArwTLs/OJwCAOmGAjsA5w7z5yVJUmcuAD5AulKvba1eBbAki4ALSfcN2JL2zyeQJEntWwwcA+zHIMv8tiKrnfYU4GxglYweT5IkvdJTwN7A7zp9oCw/ta9KKgHvzvAxJUlSchWwJ2mBvo4N9xyAJZlOOhKwD/Bkho8rSVKTPQMcDLyXjHb+0Nk5AIO5HfgZac2Azci2ZEiS1BSLgV8AHwKuJt3eNzN5FACAuaT5ifNJdxTcAIuAJEmtWExa1e+jwA+AF/IYpKgz998IfAnYA1imoDElSaqS+cBZwDdJt/PNVdGX7k0irR+wF2nJQi8dlCQ13c2kHf85pLP8CxG5A34jsAvpxMEtgLGBWSRJKsoLwLWks/ovAO6NCFGWT+Cjgf8HbAWsD6wDTAbGR4aSJKlDzwP39G5/B/5MunHPvMhQUJ4CMJhVSYsLjQfG9f53+dBEkiQt2bOkpfJn9/73cdIl8pIkSZIkSZIkSZIkSZIkSZIkSZIkSZIkSZIkSZIkSZIkSZIkSZIkSZIkSZIkSZIkSZIkSZIkSZIkSZIkSZIkSZIkSZIkSZIkqU3/B/XhJ9Mwop6xAAAAAElFTkSuQmCC;" vertex="1" parent="1">
          <mxGeometry x="70" y="140" width="32" height="32" as="geometry" />
        </mxCell>
        <mxCell id="WdoEh3YIsQ9yu6LuEiXz-27" value="" style="shape=image;verticalLabelPosition=bottom;labelBackgroundColor=#ffffff;verticalAlign=top;aspect=fixed;imageAspect=0;image=data:image/png,iVBORw0KGgoAAAANSUhEUgAAAgAAAAIACAYAAAD0eNT6AAAABHNCSVQICAgIfAhkiAAAAAlwSFlzAAAOxAAADsQBlSsOGwAAABl0RVh0U29mdHdhcmUAd3d3Lmlua3NjYXBlLm9yZ5vuPBoAACAASURBVHic7d15mB1lnfbxb3cSErIRlE0QlUXCKiKoLwIqQUVQAYGRkVVlfF3YVQQVGBxUBDdWd0FAEB3WAUVEQJQBQXY0yCKELaxCCAnZ0/PH0w1Nk+6c06eqfrV8P9dVF6TTfZ77nCt96j71VD0FkiRJkiRJkiRJkiRJkiRJkiRJkiRJkiRJkiRJkiRJkiRJkiRJkiRJkiRJkiRJkiRJkiRJkiRJkiRJkiRJkiRJkiRJkiRJkiSVV1d0gCF0Aa8FVgLGA+N6t+UjQ6nWeoAZwFPAVODJ2DiSlJ+yFIAxwObAVsD6wDrAZGBsZCg13jTgAuAM4I7YKJKUrcgCsB6wCzCFtPMfE5hFGkoPcCnwBeCe4CySVEkrAPsDN5DeVN3cqrTNAT6HJKllk4HTgXnEv4m7uXW6nQ6MRJI0qI2BXwGLiH/TdnPLcjud8pxDI0ltG5HT464AnAT8CNgQ3yhVP28GZgPXRQeRpOHIesfcDewLHAu8OuPHlspmPvB24LboIJLUriwLwGuBc0iX8klNcSPpKpbF0UEkqR1ZTQG8B/gd6Rp+qUlWAx4HbooOIknt6PQIwAjg68AXM3gsqaqeBdbFlQMlVUgnRwCWAc4GPoU7fzXbssDKwEXRQSSpVcPdcY8Hzgfel2EWqcp6SFNhV0UHkaRWDKcAvBq4Atgk4yxS1U0l/V7Mjw4iSUvT7hTAWOAy4G05ZJGqbkXgBeDa6CCStDTtHAEYBVwMbJdTFqkOXiAtfvVAdBBJGkp3i9/XRVr61J2/NLSxwAnRISRpaVqdAjgEODTPIFKNTAZuBe6ODiJJg2llCuCtpDnNZXLOItXJQ6SFsWZHB5GkJVnaEYBJwB9IN/eR1LrlSFNsV0YHkaQlWdoRgDOBvYoIItXQAlwcSOrEPNJRtBnALOBR4C7S9NqzgblqYagC8C7g6qV8jyRJEZ4CbgeuIS3AdSOwMDRRxQy2cx9FusWpN/eRJFXBLOCPwC+BC4E5oWkqYLACcChwfJFBJEnKyEzgPODnwJ9jo5TXkgrAeGAaaclfSZKq7FbgWFIh6AnOUipLWgjos7jzlyTVwybAr4FbgJ2Cs5TKwCMAY4D7gdcEZJEkKW9XA/uRriZotIFHAPbFnb8kqb62Jh0N+CrpQ29jDTwCcBuwcUQQSZIKNhX4CPD36CAR+h8B2BB3/pKk5lgfuB7YPTpIhJH9/v9jUSGGMJe0wMPlpPmaZ3D1Jw3fdsAp0SEklcoE4GxgC+BAYFFsnOL0TQGMAB4BVgnM0t/9pPmZC0iLO0hZ6CKdAPSu6CCSSuki0tGARiwi1FcANgP+Ghmk1yzgK8APgfnBWVRP65POdRkVHURSKf0Z2IF0/4Fa6zsHYOvQFMk00iGYk3Dnr/xMBb4THUJSaW1FOlI4KTpI3voKwJTQFOkT2duAO4JzqBmOAR6MDiGptN4MXAwsGx0kT92kEwG3CMzwBLAj6c5OUhFeAA6KDiGp1N4J/IqXnyxfK93AeqSzICMsAnYGHgoaX811MfA/0SEkldqHgBOjQ+SlG1g3cPzTgOsCx1ezHQDMjg4hqdQ+C+wZHSIPkQVgDvBfQWNLkI48fS06hKTS+wGxH5Zz0Q2sEzT2WaS1B6RI3yFdGSBJgxkPnEvN7h3QDawZNPZFQeNK/S0gHeLzPuGShrIxcHh0iCx1A8sFjPs8aYlfqQyuIR2RkqShHAasHR0iK93EXAFwCzAvYFxpMIfifSYkDW0MNbqfSDdpbqNo9weMKQ3lSeDL0SEkld62wE7RIbIQdQTguYAxpaX5MXBjdAhJpXcUL91Lp7K6ibkpimv9q4wWA58EFkYHkVRqmwDbR4foVPfSv0VqlDtI1/xK0lCOjA7QKQuA9EpHAo9Fh5BUam8n3TmwsiwA0is9B3w+OoSk0ts7OkAnuohZAOV40vWUUpldAbwnOkSvR/DcGTXPssBKwIjoIIN4DngNaWn7SuoJ2I4r5JlJnVkHmEvM78jAzXsWqKmWATYDjgZuJf53ceC2W27PvAAWAGlw/0X8G0wPqYhMzvm5SlXwdtLqndG/k31bpZe1twBIg1sWuI/4N5ke4Mqcn6tUJTuTVu+M/r18DhiZ83PNjQVAGtq2xL/J9G275/xcpSpZm3Q3z+jfy7fn/UTz4FUA0tJdDpwXHaLXd4i5gZdURvcBWwJ3B+eYEjz+sFgApNYcQrqLZbRV8IRAqb9ngB2BGYEZtg4cuyNOAUit+Rzxhxp7SEsVb5rzc5WqZmfificfL+D55cICILVmJOW5DOkmyntttBTlSuJ+JycV8Pwy5RSA1LqFwH6kX/ZomwKfig4hlUzkLb0rd5muBUBqz3XAadEheh1LWoVMUnIDcHvQ2BYAqQEOA56ODgFMJC2rLeklFweNu3rQuMNmAZDa9y/Kcy+LPajwGchSDi4JGndC0LjDZgGQhud00nKk0bqAHwKjo4NIJXEnsChg3PEBY3bEAiANTw9wAOnEwGjr4O2LpT7ziJmimxgwZkcsANLw3QmcGB2i11eANaJDSCURsWiXRwCkhjkKeDA6BDAW+H50CKkkIqYAKrc/rVxgqWReoDyH398P7BQdQlI1WACkzp0PXBodotdJVPBQpKTiWQCkbOwPzI4OQboW+cjoEJLKzwIgZeNBynOPi88BG0eHkFRuFgApO8cB/4gOQbpp0SmkNQIkaYksAFJ25gOfphw3C9oS2Cc6hKTysgBI2boGODc6RK9vAytEh5BUThYAKXuHADOiQwCvBr4eHUJSOVkApOw9QVogqAz+A9g8OoSk8rEASPk4FbgxOgTpd/xHpBMDJelFFgApH4uB/YhZknSgjUhZJOlFFgApPzcBP44O0esYYLXoEJLKwwIg5etw4LHoEMAE4LvRISSVhwVAytdM4LDoEL0+AmwfHUJSOVgApPydBVwVHaLXicCY6BCS4lkApGJ8BpgXHQJYm/IckZAUyAIgFeMeyjMH/yVgcnQISbEsAFJxjgEeiA4BjAZOjg4hKZYFQCrOHMpzPf57SScFSmooC4BUrMuAi6ND9DoRWC46hKQYFgCpeAcAs6JDAKsAR0eHkBTDAiAV72Hga9Eheh0AbBIdQlLxLABSjO8Ad0SHAEaQbhbke4HUMP7SSzEWkk4I7IkOAryVdNtgSQ1iAZDiXAucGR2i17HAStEhJBXHAiDF+jzwdHQI4FXAcdEhJBXHAiDF+hdwRHSIXvsAW0eHkFQMC4AU7yfA9dEhgC7SCoGjooNIyp8FQIq3GPgU6cTAaBsAB0eHkJQ/C4BUDncCp0aH6HU08IbgDJJyZgGQyuNI4NHoEMBY4HvRISTlywIglcfzpKsCymAn4EPRISTlxwIglcuvgN9Gh+h1CjAuOoSkfIyMDiDpFQ4GpgBjgnO8DniMcpycKLVjYsCY2wL/BGYCs3u3J4C7gXv6/XduQLYlsgBI5XMvaVGe/4wOAkyIDiBVxBhgzaV8zyLgNuAPwP8CfyRN/YXoImYt8uOBwwLGlapiDOnKgLWjg0jKzVzSlN+ZwGXA/CIH9xwAqZzmAvtHh5CUqzHAzsBFpCuATgYmFzW4BUAqr8uB/44OIakQK5BK/1TgEmCzvAe0AEjldgiBc4SSCtcNfBC4EbgYWCfPgSSV16OU42RAScXqAnYA/gacCIzPegALgFR+J5POHJbUPKOAA4E7gPdn+cAWAKn8FgL/n3TTIEnNtAbpioETgWWyeEALgFQNfwV+Fh1CUqgu0tGAa0mFoCMWAKk6Dgeeig4hKdxbgZuALTp5EAuAVB3P4AJakpJXAVcCuwz3ASwAUrX8nLR8qCSNJt1A7JPD+WELgFQtPcABwILoIJJKYQTwI2Dfdn/QAiBVz9+AE6JDSCqNLlIJaGs6wAIgVdPRwLTgDJLKYwTwC2CrVn/AAiBV0wvA56JDSCqVMaTlg1u6RNACIFXXhaSbhkhSn+WBX5NOEBySBUCqtv2B2dEhJJXKZsBxS/smC4BUbQ8B34gOIal0DgR2HOobLABS9X0buCs6hKRS6QJ+ACw32DdYAKTqmw98mrRGgCT1eQ1w5GB/aQGQ6uFPwFnRISSVzkHARkv6CwuAVB8Hkc4JkKQ+I4HvLekvLABSfcwAdgVmRQeRVCrbAJsP/KIFQKqXv5LO/H0+OoikUjli4BcsAFL9XAVsCdwfHURSaWwHbNL/CxYAqZ7uAN5EumnQ/OAskuJ1AQf3/4IFQKqv2cAhwNqktQIeiY0jKdjOwLi+P3QRc+3w8cBhAeNKTdYFbAxsSioFy/d+TVLnRgITgBWB9YCVY+MMam/6XTLcE7AtdY1iSZIq7M3AfwJTidnPDrb9vn9IC4AkSfnoBvYBHiR+598DLARe3RdMkiTlYzFwBjAZOC04C8AI4N1gAZAkqQhzgX1JJ+YuCs4yBSwAkiQV6QQGXI4XYGuwAEiSVLRTgB8Hjr8esJIFQJKk4h0A3Bs4/voWAEmSijcf+HLg+JMtAJIkxTgfuClo7HUtAJIkxegBzg4aex0LgCRJcS4KGndlC4AkSXGmAf8IGHeCBUCSpFhTA8a0AEiSFOyJgDEtAJIkBZsVMOY4C4AkSbF6AsbssgBIktRAFgBJkhrIAiBJUgNZACRJaiALgCRJDWQBkCSpgSwAkiQ1kAVAkqQGsgBIktRAFgBJkhrIAiBJUgNZACRJaiALgCRJDWQBkCSpgSwAkiQ1kAVAkqQGsgBIktRAFgBJkhrIAiBJUgNZACRJaiALgCRJDWQBkCSpgSwAkiQ1kAVAkqQGsgBIktRAFgBJkhrIAiBJUgNZACRJaiALgCRJDWQBkCSpgSwAkiQ1kAVAkqQGsgBIktRAFgBJkhrIAiBJUgNZACRJaiALgCRJDWQBkCSpgSwAkiQ1kAVAkqQGsgBIktRAFgBJkhrIAiBJUgNZACRJaiALgCRJDWQBkCSpgSwAkiQ1kAVAkqQGsgBIktRAFgBJkhrIAiBJUgNZACRJaqCR0QEkKVg38EZgQ2AFYBLwDDAduBN4KC6alB8LgKQm6gbeDXwU+CCwyhDfez9wPvDD3v+XaqMnYDuukGcmSS+3AXAs6VN9u+9bC4EzgJULT626O46YfbEFQFKtrQIcDNxMNu9fzwI7FPoMVHchBcCTACXV0Vhgd+A3wMPA94C3ZPTYk4CLgM9n9HhSCM8BkFQXffP6ewG7ABNyHKsL+DawADgpx3Gk3FgAJFXdesBuwN7AGgWP/V3gLuCKgseVOmYBkFRFrwJ2Je30twjMMQL4GamEzA7MIbXNcwAkVUX/ef0ngB8Ru/PvszpwaHQIqV0WAEll1g1sSdrZPwacDWxP+Y5eHgCMiw4htaNsv0SSBOl6/T2BPUifsMvuVcCOwDnRQaRWWQAklcXKpJX59iK7S/aKZAFQpVgAJEUaA7yXtNPfCRgVG6cjm0cHkNphAZBUtP7X6+8MTAxNk53VSc9lZnQQqRUWAElF6btefy9gzeAseVkBC4AqwgIgKU9Vn9dv1/joAFKrLACSslanef12dUUHkFplAZCUhW7gHaSd/r9Tn3l9qbYsAJI60YR5famWLACS2lWWdfgldcACIKkVTZ7Xl2rJAiBpMM7rSzVmAZA0kPP6UgNYACSB8/pS41gApOZyXl9qMAuA1CzO60sCLABSUzivL+llLABSfTmvL2lQFgCpXpzXl9QSC4BUfc7rS2qbBUCqLuf1JQ2bBUCqFuf1JWXCAiCVn/P6kjJnAZDKyXl9SbmyAEjl4ry+pEJYAKR4zutLKpwFQIqxLGk+f0/gffi7mKXbgGmk11fSILqjA0gN0g1sCfwIeBw4B9ged/5ZmA6cBGwKbAKcFxtHKj/feKT8Oa+fjznApcBZwGXAwtg4UrVYAKR8OK+fj8XA9cCZpCMos2LjSNVlAZCyMxrYGef183Ab6ZP+L4HHgrNIteAblNS5icCBwP7AysFZ6uRR4GzSjv9vwVmk2rEASJ15P+mkvtdFB6kJ5/WlglgApOE7DDgW6IoOUnHO60sBLADS8HwPODg6RMU5ry8FsgBI7fss7vyHazrpGv0zgFuCs0iNZgGQ2vMm4IToEBXzPHAh6dP+VaRD/pKCWQCk1nWRVpvzdrxL57y+VHIWAKl17wfeFR2i5JzXlyrCAiC17lPRAUrKeX2pgiwAUmsmAh+IDlEis4ALcF5fqiwLgNSazfH3xXl9qUaa/oYmtWqz6ACBnNeXasgCILVmlegABXNeX6o5C4DUmldFByiA8/pSg1gApNbU9XfFeX2poer6piZpaFNJO/0zcV5faiQLgNQczutLepEFQKq3OcClpHn9y4CFsXEklYUFQKof5/UlLZUFQKoP5/UltcwCIFWb8/qShsUCIFWP8/qSOmYBkKrBeX1JmbIASOXmvL6kXFgApPKaBmwQHUJSPXVHB5AkScWzAEiS1EAWAEmSGsgCIElSA1kAJElqIAuAJEkNZAGQJKmBLACSJDWQBUCSpAayAEiS1EAWAEmSGsgCIElSA1kAJElqIAuAJEkNZAGQJKmBLACSJDWQBUCSpAayAEiS1EAWAEmSGsgCIElSA1kAJElqIAuAJEkNZAGQJKmBLACSJDWQBUCSpAayAEiS1EAWAEmSGsgCIElSA1kAJElqIAuAJEkNZAGQJKmBLACSJDWQBUCSpAYaGR1AUiMtA6wPrANMBtYD1gAmAuN6/zsRWATMBp4H5gAPAw/0bvcBNwIPFpxdqgULgKQijAQ2BbYGpgBbAGNb+LkRpLKwfO+fJy/hex4HbgCuAv4HmNZhVqkRLACS8rQpsDfwUWDFnMZYBdixdzsRuB14LKexpNqwAEjK2jjgk8B/ABsEjL9x7yZpCBYASVmZAHwCOJz0qVxSiVkAJHVqNHBo7zYxOIukFlkAJHVia+BU0ln8kirEAiBpOFYg7fg/Eh1E0vBYACS1623Ar4A3BOeQ1AFXApTUqi7gIOBa3PlLlecRAEmtGAOcA3w4OoikbFgAJC3NeOAC4L3RQSRlxwIgaSgrA5cBm0QHkZQtC4CkwbyatL7++tFBJGXPkwAlLclY4GLc+Uu1ZQGQNNAo4DzSHfsk1ZQFQNJA3wO2iw4hKV8WAEn97QrsFx1CUv4sAJL6rAX8NDqEpGJ4FYDqahTpErZxpOvYJ5HuWjcfmA3MBf4FTAcWBmUsk5HAucBy0UEkFcMCoDpYnXRXug2BycC6wJq09u97IfAw8ABwF3AD8Bfg3lySltcBwGbRISQVxwKgKhoLfBB4D2nHv3YHjzUSWKN3m8JL899PA5eTLoX7XQePXwWrAl+NDiGpWBYAVUU38E5gH2AXYELO460A7NG7zSNNGdTVd8n/9ZRUMhYAld2ywL7A54m7A93o3q2O3gHsFh1CUvEsACqr8aQd/xdJh6iVjyOiA0iKYQFQ2XQBewPHAysFZ6m7TYD3R4eQFMMCoDKZDJxCOrlP+fsKqXBJaiAXAlIZjACOBu7EnX9RVgc+HB1CUhyPACjaSsBZwPuigzTMXvgBQGo0C4AivQc4G+f6I+wZHWAQM4BbgGm9/z+KtIrjOsBbev8sKQMWAEXZh7TuvP8Gi/dWYL3oEP3MAs4ELgL+CCwY5PsmAduTbli0Ix7BkDriL5AifAE4HXf+UXaNDtBrAfB90kqO+wFXMPjOH9IRgXOAnYFNgd/nHVCqMwuAinYc8C08+zzSlOgAwCPA5qQd/xPD+PnbgG2Bj5NWapTUJguAinQUaWEfxZlEuv4/0g3A24CbM3isn5MKzXBKhNRoFgAV5VN4w5kyeBfpsssod5MWH3osw8e8DtgOeCHDx5RqzwKgIuwCnBodQgBsGTj2s8AOpLn8rN1KWjq6J4fHlmrJAqC8rQ+cQeynTr0k8uz/LwD35Pj455JOEpTUAguA8jSG9IY8LjqIXrRu0Lh3kS71y9sReFKg1BILgPJ0KrBxdAi9aDRxt1Q+AlhYwDjTgB8XMI5UeRYA5WVn4BPRIfQyaxEzFTMT+E2B451b4FhSZVkAlIexwHejQ+gVVgwa97cUe1j+L8DjBY4nVZIFQHn4KvD66BB6hfFB415R8HiLgSsLHlOqHAuAsrYhcFB0CC3RhKBx/9GQMaVKsQAoa8fgHdvKKqoAPBkw5lMBY0qVYgFQljYg3aVN5bRM0LjzA8acGzAmwKKgcaW2WQCUpS/jTX7KbHbQuBHnHkQd7Xg+aFypbRYAZWUtYLfoEBpS1M4p4oTQ1wWMCRYAVYgFQFnZF5f7LbtZQeNG3H3wLQFjggVAFWIBUBa6gT2iQ2ipZgaNu0PB400C3lnwmJDOO1gQMK40LCOjA6gW3k3cIdeh3A9cCtwJPEx6c+4GViOdsLgd6bLFpngoaNy3AqsC0wsabztirkSJen2lYbEAKAt7RwfoZz7wQ+BnwB1L+d4vks5d2Bv4HHEL5RRlOukQddEnyHUDnwGOLGi8zxY0zkCuPaDK6QnYjivkmakIXaTrvCP+HQ3cfg2sOcznsTLwfdIqctHPo297YJjPZSg3BT2XWcBrcng+A+0Y9Px6gOMLeH6qp+MI+DfrOQDq1IbErTHfZyFwAPAR0mH/4XiC9Mnx34i7XK4IdweNOw44NucxxhL74SLqtZWGxQKgTk0JHn8usD1wSkaPdz6wJfVdSe62wLH3AT6d02N3AacDk3N6/FbcHji21DYLgDq1deDYPaTLD7O+2cxtwK7ErGCXtz8Gj38SsE0Oj3sU6QhQlGeBWwPHl9pmAVCn3h449vHAOTk99p+AA3N67Ei3ADMCxx8F/Ab4WIaP933g6Iweb7iuwWWAVTEWAHViOWCVoLEfIv83/R+T7i1fJ4tI5SbSaNLh+hOBiR08zlrA70lXGES7KjqA1C4LgDoROd96JPnf8KWHdKlg3fw+OkCvA4H7SCdwjm7j51YilYeppDUoyqAsr6nUlojLZbwMsB72Iubfz4MUW16vyel5LG17IKfnsyLp/IaI5zTY9hxwLvBR0qWc/ZeVHg1sRCoMfyAt6BSdt/92U6svvDSIkMsAXQhInVg7aNyLSdfrF+VCYpaWzctTwGUUv0TvUCaSbibV/4ZSM0iLlZV9gaazogNIw+EUgDoxKWjcCwse76KCxytCFXZakyj/zn8h6ciFVDkWAHUi4s15MXB9wWNOAx4teMy8XUJ91zoo0m9Ji0hJlWMBUCciCsCj5H/y35L8M2DMPM0jnUinzng+kyrLAqBOFH1TGYi7hv3ZoHHzdDKxawJU3VXAddEhpOGyAEjlNS/nx58JnJrzGHX29egAUicsAOrE8wFjRp14uHzAmLMKGOME6nl0I2/X4OI/qjgLgDpRxA5qoNWAZQPGfWPAmDMLGONp4IgCxqmThcBB0SGkTlkA1ImIAtANvKPgMdeimHvZD1TUEZYfAjcUNFYdnIB3/lMNWADUiahDxzsVPF7UgjlFnaC3mLQcb5GLK1XVI8BXo0NIWbAAqBNRl8btyMuXis3bhwscq78iX9+/4iVtS7OYdPvpiCNfUuYsAOrE3UHjrk66D0ER3glsVdBYA/2j4PGOAv5c8JhV8g286Y9qxAKgTkQVAICvAWNzHqML+GbOYwyl6Nd3IbA76cRAvdyf8NC/asYCoE48BzwWNPZqwNE5j/FpYPOcxxjMYuDegHEfAfYklQElj5LuUuhrolqxAKhTNwaOfSiwR06PvSXpbO8odwIvBI19OfAx0i1Dm+454APA9OggUtYsAOpU9GIoPwXel/Fjvpl0x8FlMn7cdkS/rmcDhwVniDYH+BBe8qeasgCoU9E7qjHAb4ADM3q8XYFrgRUyerzhin5dAb4FHB8dIsh80mF/T4pUrfUEbF5uVB9dpNuhRvw7GridR1q0ZzhWIS2Is7gEz2MBMHGYzyMPX6Icr0tR20zgvZm8clJrjiPm33rIoBaAejmN+Dftvm0ecBKwcYvZ3wgcQ1p1Lzp733Zli9mL9AlSMYl+bfLengA2zeg1k1oVUgBGFvLUVHdnAR+PDtFrGdKqdgcAD5CmB+4gnd0+DxgFrApsAGwHrB8Tc0i/iA6wBKcBT5KyLRecJS9TSYtM3RcdRCpKRMv2CEC9dJF2ttGf3uqwvUC5d7CvB64n/nXKejsTGJfh6yS1I+QIgCcBKgs9wDnRIWriQtKlZ2X1IGl1xL43rKqbAxwM7A3MDs4iFcoCoKz8DBdKycJPogO0YAFwOOnyy3uCs3TiMmAj4MToIFIEC4Cycj9wbnSIirse+GN0iDb8AdiQ9Am6SjfImQ7sA2xP3A2tpHAWAGXpWLylbCeOiQ4wDAtIn6A3Ii3KND82zpCeBo4A1iHN+UuNZgFQlqYCF0WHqKhbgd9Fh+jANOCTwOtI5wdELWO8JE+SbuSzFvB1nOuXXhRxxq1XAdTXeqTL7aLP6q7a9p7hvNglthJpauAWYl7PBaRLQP+dtFqkVGYuBKTa+CbxO9QqbXU/d2JD0r+J28l3RcG5pHMoDgZWLuKJSRmxAKg2xpEuF4vesVZhm0lamKgpVgQ+AvwA+CvpksfhvnaPA1cD3yAdQVm2wOchZcmVAFUbs4GDSNe0a2hH0axbzT4F/Lp367MqsC7wBmB5UoEcT1oQaTGpJMwkXWnwLOnSw7uBGUWFlurIAqC8XES6pv2T0UFK7Crg5OgQJTCdZpUgqRS8CkB5OhC4LTpEST0O7AEsig4iqZksAMrTXNJ878zoICWziLTzfzw6iKTmsgAob/eSVl3zk+5LDiEd/pekMBYAFeEi4DPRIUri6zjvL6kELAAqyk9IZ7w32VnAkdEhJAksACrWMTR3DYhfAp8gXX8rSeEsACra4aQ1App006CTgT3xdsmSSsQCoAgnAXuT1muvsx7STWgOpFmFR1IFWAAU5WxgW+p7KdxMYDfg6OAckrREFgBFuhp4E3B5dJCM3QpsCvx3dBBJGowFQNGeArYnXSFQ9SmBHuAU4B3AfcFZIhIeVgAABe1JREFUJGlIFgCVwWLSFQIbAlcEZxmu24EtgQNIKyBKUqlZAFQm95DOC9gbeCI4S6tmku4/vxlwXXAWSWqZBUBl00NaMGct0o710dg4g3qetKbBGsCJeImfpIqxAKisZpN2rGsD+wH3x8Z50ePAl4HXktY0eCY2jiQNjwVAZTcX+D7piMBmpDUE/hWQ4VLSnQ1fBxyLdziUVHEjowNIbbi5dzucdOXANsAUYHIOYz1IukzxD8AluMOXVDMWAFXRHOD83g1gNWBr0lUEk4F1SUcMRrXwWIuAacDdwF3AVOAa4J+ZJpakkrEAqA4eBX4x4GsjgZWA8cAEYDlgDDAfmAHM6t2e7P2aJDWKBUB1tRCYHh1CksrKkwAlSWogC4AkSQ1kAZAkqYEsAJIkNZAFQJKkBrIASJLUQBYASZIayAIgSVIDWQAkSWogC4AkSQ1kAZAkqYEsAJIkNZAFQJKkBuoGFgSMu0zAmJIklVHEPnF+N/B8wMDLBYwpSVIZTQoYc1Y3MCtg4DUDxpQkqYzWDhhzZtQRgLcAowPGlSSpTMYAbw4Yd1Y38FzAwBOAbQLGlSSpTLYBxgeMO6MbuD9gYICdgsaVJKksovaF93cDdwcNvhewetDYkiRFWw3YPWjsf0QWgDHA0UFjS5IU7WvA2KCx7wbYCOgJ2hYCW+b9LCVJKpmtSPvAqP3vBgAjgZmBIZ7CywIlSc3xeuAJ4va7M4FRfWF+GxikB7gNWGn4r6UkSZWwMnA7sfvcS+ClewFcnd9zbcnGwM3ApsE5JEnKy5uAv/T+N9JV/f+wKbFtpG+bBRyCiwRJkupjNPB50j4uej/bQ/rQ/aIRwPQShOrb7gc+Bkxs6yWWJKk8JgIfBx4gfr/atz1M79H/rn5BvwV8Ietn36F5pOmJy4G7gKeBGaQnIUlSWXSRbuqzArA+sC2wNeW7++1xwOHw8gKwAfC3kDiSJKkIG9G7r+/u98W/k87GlyRJ9XML/T7odw/4y58Um0WSJBXkp/3/0DXgL8cA/wRWLSyOJEnK2+OkRffm9H1h4BGAucAJRSaSJEm5+xb9dv7wyiMAAOOAaaQzGSVJUrX9C3gDaR2CF41YwjcuABaRLmGQJEnV9mXgzwO/uKQjAJBuEHQTA1YLkiRJlXInabXfBQP/YuA5AH0WAvvjgjuSJFVVD2lf/oqdPwxeAACuBc7II5EkScrdacCfBvvLwaYA+kwgTQWsk2UiSZKUq/uAzYDnBvuGoY4AADwP7E5ak1+SJJXfPGA3htj5w5KvAhjoMWAmsF0GoSRJUr4OBC5Z2je1UgAAbiCtIORVAZIkldfpwJGtfOPSzgHobwRwHrDTcBJJkqRc/Ya0j17Yyje3UwAAlgWuALZo8+ckSVJ+bgC2AWa3+gNLOwlwoDnAjqRbCkqSpHg3A9vTxs4f2i8AkNYUfhdw+TB+VpIkZecqYArwTLs/OJwCAOmGAjsA5w7z5yVJUmcuAD5AulKvba1eBbAki4ALSfcN2JL2zyeQJEntWwwcA+zHIMv8tiKrnfYU4GxglYweT5IkvdJTwN7A7zp9oCw/ta9KKgHvzvAxJUlSchWwJ2mBvo4N9xyAJZlOOhKwD/Bkho8rSVKTPQMcDLyXjHb+0Nk5AIO5HfgZac2Azci2ZEiS1BSLgV8AHwKuJt3eNzN5FACAuaT5ifNJdxTcAIuAJEmtWExa1e+jwA+AF/IYpKgz998IfAnYA1imoDElSaqS+cBZwDdJt/PNVdGX7k0irR+wF2nJQi8dlCQ13c2kHf85pLP8CxG5A34jsAvpxMEtgLGBWSRJKsoLwLWks/ovAO6NCFGWT+Cjgf8HbAWsD6wDTAbGR4aSJKlDzwP39G5/B/5MunHPvMhQUJ4CMJhVSYsLjQfG9f53+dBEkiQt2bOkpfJn9/73cdIl8pIkSZIkSZIkSZIkSZIkSZIkSZIkSZIkSZIkSZIkSZIkSZIkSZIkSZIkSZIkSZIkSZIkSZIkSZIkSZIkSZIkSZIkSZIkSZIkqU3/B/XhJ9Mwop6xAAAAAElFTkSuQmCC;" vertex="1" parent="1">
          <mxGeometry x="150" y="190" width="32" height="32" as="geometry" />
        </mxCell>
        <mxCell id="WdoEh3YIsQ9yu6LuEiXz-29" value="" style="endArrow=none;startArrow=none;endFill=0;startFill=0;endSize=8;html=1;verticalAlign=bottom;labelBackgroundColor=none;strokeWidth=3;rounded=0;edgeStyle=orthogonalEdgeStyle;exitX=0;exitY=0.25;exitDx=0;exitDy=0;entryX=1;entryY=0.25;entryDx=0;entryDy=0;" edge="1" parent="1">
          <mxGeometry width="160" relative="1" as="geometry">
            <mxPoint x="50" y="222" as="sourcePoint" />
            <mxPoint x="210" y="222" as="targetPoint" />
          </mxGeometry>
        </mxCell>
        <mxCell id="WdoEh3YIsQ9yu6LuEiXz-30" value="" style="endArrow=none;startArrow=none;endFill=0;startFill=0;endSize=8;html=1;verticalAlign=bottom;labelBackgroundColor=none;strokeWidth=3;rounded=0;edgeStyle=orthogonalEdgeStyle;exitX=0;exitY=0.25;exitDx=0;exitDy=0;entryX=1;entryY=0.25;entryDx=0;entryDy=0;" edge="1" parent="1">
          <mxGeometry width="160" relative="1" as="geometry">
            <mxPoint x="50" y="172" as="sourcePoint" />
            <mxPoint x="210" y="172" as="targetPoint" />
          </mxGeometry>
        </mxCell>
        <mxCell id="WdoEh3YIsQ9yu6LuEiXz-31" value="&lt;font style=&quot;font-size: 15px&quot;&gt;Free Music Library&lt;/font&gt;" style="text;strokeColor=none;fillColor=none;html=1;fontSize=24;fontStyle=1;verticalAlign=middle;align=center;" vertex="1" parent="1">
          <mxGeometry x="80" y="240" width="100" height="40" as="geometry" />
        </mxCell>
      </root>
    </mxGraphModel>
  </diagram>
</mxfile>
